<?xml version="1.0" encoding="UTF-8" standalone="no"?>
<svg xmlns:dc="http://purl.org/dc/elements/1.1/" xmlns:cc="http://creativecommons.org/ns#"
  xmlns:rdf="http://www.w3.org/1999/02/22-rdf-syntax-ns#" xmlns:svg="http://www.w3.org/2000/svg"
  xmlns="http://www.w3.org/2000/svg" xmlns:sodipodi="http://sodipodi.sourceforge.net/DTD/sodipodi-0.dtd"
  xmlns:inkscape="http://www.inkscape.org/namespaces/inkscape" version="1.1" id="svg2" xml:space="preserve"
  width="5333.3335" height="5326.6665" viewBox="0 0 5333.3335 5326.6665" sodipodi:docname="4500_7_02.eps">
  <metadata id="metadata8">
    <rdf:RDF>
      <cc:Work rdf:about="">
        <dc:format>image/svg+xml</dc:format>
        <dc:type rdf:resource="http://purl.org/dc/dcmitype/StillImage" />
      </cc:Work>
    </rdf:RDF>
  </metadata>
  <defs id="defs6" />
  <sodipodi:namedview pagecolor="#ffffff" bordercolor="#666666" borderopacity="1" objecttolerance="10"
    gridtolerance="10" guidetolerance="10" inkscape:pageopacity="0" inkscape:pageshadow="2" inkscape:window-width="640"
    inkscape:window-height="480" id="namedview4" />
  <g id="g10" inkscape:groupmode="layer" inkscape:label="ink_ext_XXXXXX"
    transform="matrix(1.3333333,0,0,-1.3333333,0,5326.6667)">
    <g id="g12" transform="scale(0.1)">
      <path d="M 0,0 H 40000 V 39950 H 0 Z" style="fill:#bbefff;fill-opacity:1;fill-rule:nonzero;stroke:none"
        id="path14" />
      <path
        d="m 20137,5788.7 c -5378.9,0 -9739.4,408.4 -9739.4,912 0,204.4 717.7,393 1930.3,545.1 513.5,-387.8 1153.1,-603.2 1821.1,-603.2 h 3494.7 v 0 h 5017.2 v 0 h 3590.8 c 659.9,0 1292.3,210.3 1802.6,589.4 1146.7,-149.6 1822,-333.1 1822,-531.3 0,-503.6 -4360.4,-912 -9739.3,-912"
        style="fill:#96bfe3;fill-opacity:1;fill-rule:nonzero;stroke:none" id="path16" />
      <path
        d="m 15306.6,9171.5 c -2424,-1388.5 -4725.7,-120.9 -5074.8,1798.7 -68.5,377 -61.1,779.3 34.9,1191.2 56.3,241.8 143.5,486.6 264.4,732.7 106.5,217.3 215.6,435 321.6,653.2 370.5,761.4 702.1,1521.1 760.6,2230.2 27.9,336.4 -5.7,662 -126.6,970.5 -64.1,162.7 -167.5,303.2 -294.5,414.9 -150.5,132.2 -334.2,224.3 -523.6,264.5 -84.7,17.8 -170.2,25.7 -254.9,21.8 -545.84,-23.1 -1041.1,-517.1 -841.25,-1748.5 280.14,-1730.1 -1601,-2271.2 -2292.18,-787.6 -30.54,65.9 -58.03,135.2 -83.78,207.7 -8.29,25.3 -17.02,51 -25.3,76.8 -431.57,1381.5 91.19,3773.6 2225.41,4275 97.75,23.5 199.42,42.3 304.58,57.1 143.99,20.1 285.82,32.3 424.62,35.8 257.4,7 505.7,-14 741.7,-60.2 1733.7,-339.5 2825,-2046.1 2278.3,-4186.8 -293.7,-1149 -1481.9,-3315.5 -978.8,-4361.9 159.3,-331.6 648,-589 1227.1,-562 14.8,0.4 30.1,1.3 45.3,2.2 h 0.5 c 417.6,30.1 878.8,209 1293.8,613.9 l 572.9,-1839.2"
        style="fill:#8e8fb3;fill-opacity:1;fill-rule:nonzero;stroke:none" id="path18" />
      <path
        d="m 11212.6,9533.2 c -2.9,2.7 -5.8,5.4 -8.6,8.1 -271.8,255 -479.4,547.8 -620.7,864.9 178.4,-175.6 407.5,-318.1 667.4,-411.6 -22.8,-137.4 -36.3,-290.5 -38.1,-461.4"
        style="fill:#797aa9;fill-opacity:1;fill-rule:nonzero;stroke:none" id="path20" />
      <path
        d="M 28539.5,21462.5 C 28160.6,17679 23660.4,17196.6 21538.8,16775 h -2677 c -1371.1,272.5 -3736.1,570.2 -5339.7,1768.6 -387.3,289.3 -730.1,631.1 -1004.1,1037.7 -194.9,289.6 -354.9,612.5 -471.1,972.8 -78.4,244.1 -136.7,505.4 -172,785.6 -13.5,106.4 -23.7,215.3 -30.3,327.2 -19.6,327.5 -9.1,679.1 35,1055.9 38.3,326.4 288.2,1443.2 628.9,2537.7 115.9,372.8 242.3,743 374.6,1078.2 -483.9,2148.6 -681,4854.7 46.2,5787.1 473,606.3 1753.3,-2.2 3693.9,-1664.8 1386,610.3 3285.8,646 3577.3,644.9 291.5,1.1 2191.2,-34.6 3576.9,-644.9 1940.5,1662.6 3220.9,2271.1 3693.8,1664.8 727.3,-932.4 530.2,-3638.5 46.3,-5787.1 520.3,-1320.1 952.1,-3178.3 1003.4,-3615.9 53.6,-456.6 57.6,-875.6 18.6,-1260.3"
        style="fill:#8e8fb3;fill-opacity:1;fill-rule:nonzero;stroke:none" id="path22" />
      <path
        d="m 23777.4,29921 c -1366.9,602.1 -3234.1,645 -3564.3,645 -4.5,0 -8.7,0 -12.6,-0.1 -4,0.1 -8.2,0.1 -12.7,0.1 -330,0 -2197.3,-42.9 -3564.6,-645 -1448,1240.6 -2528.4,1894.3 -3180.1,1894.3 -221.7,0 -393.7,-75.6 -513.8,-229.5 -48.7,-62.4 -93.2,-132.9 -133.9,-210.5 50.1,192 120.1,375.4 214.9,532.1 11.1,20.8 24.7,38.7 37.9,57.1 l 19.5,27.8 c 6.6,9.4 13.1,18.9 19.2,24.7 12.5,13.3 23.3,28.9 37.4,39.5 l 19.7,18 c 6.9,5.5 14.5,9.8 21.6,15 57.3,39.7 127.1,64 209,71.8 21.9,2.1 44.4,3.2 67.4,3.2 62.8,0 129.2,-7.7 196.4,-21.1 92,-18.5 185.6,-44.9 278.7,-79.1 186.5,-67.7 370.7,-158.9 551,-258.8 360.7,-201.7 706.3,-442.4 1043.2,-694.6 336.6,-253.4 663.9,-521.8 985.7,-797.3 l 91.7,-78.6 112.7,48.4 c 268.9,115.4 549.7,208.8 836,286.8 286.6,77.8 580,135.9 874.9,185.2 295.1,48.7 593.1,84.9 892.1,110.4 298.4,25.7 600.4,41.1 895.9,43.4 295.5,-1.4 597.5,-17.3 895.9,-42.8 299.1,-25.4 597.1,-61.6 892.3,-110.3 294.9,-49.3 588.3,-107.2 875,-185 286.4,-78 567.2,-171.4 836.1,-286.7 l 112.1,-48.1 91.3,78.1 c 321.7,275.6 649,544.1 985.6,797.5 336.9,252.3 682.5,493.2 1043.2,694.9 180.3,100 364.5,191.3 551.1,259.1 93.2,34.2 186.9,60.7 279,79.2 67.3,13.5 133.9,21.2 196.8,21.2 23.1,0 45.6,-1.1 67.5,-3.2 82.1,-7.8 152.3,-32.2 209.9,-72.1 7.1,-5.2 14.8,-9.6 21.7,-15.1 l 19.8,-18 c 14.2,-10.6 25,-26.4 37.6,-39.7 6.1,-5.8 12.7,-15.3 19.2,-24.8 l 19.6,-27.8 c 13.2,-18.4 26.8,-36.4 38,-57.2 96.2,-159.1 167,-345.6 217.2,-540.5 0.1,-0.3 0.2,-0.6 0.2,-0.9 -41.7,81 -87.7,154.1 -138.2,218.8 -120,153.9 -292.1,229.5 -513.7,229.5 -651.7,0 -1732,-653.6 -3180.1,-1894.3"
        style="fill:#c7c7d9;fill-opacity:1;fill-rule:nonzero;stroke:none" id="path24" />
      <path
        d="M 28539.5,21462.5 C 28160.6,17679 23660.4,17196.6 21538.8,16775 h -2677 c -1371.1,272.5 -3736.1,570.2 -5339.7,1768.6 -387.3,289.3 -730.1,631.1 -1004.1,1037.7 -194.9,289.6 -354.9,612.5 -471.1,972.8 -78.4,244.1 -136.7,505.4 -172,785.6 3277.4,-2814.7 5642.8,-1552.2 6700.5,597.9 408.5,830 1212.6,909.8 1561.7,909.8 349,0 1153.2,-79.8 1561.2,-909.8 1072.7,-2180.7 3491.3,-3448.7 6841.2,-475.1"
        style="fill:#ffffff;fill-opacity:1;fill-rule:nonzero;stroke:none" id="path26" />
      <path
        d="m 24508.5,17600.7 c -149.2,41.1 -304.5,62.5 -462,62.5 h -7795.3 c -79.2,0 -157.8,-5.4 -235.4,-16 -56.8,97.7 -109.1,204.4 -155.5,320.6 46.8,23.9 91.7,52.1 134,84 114.5,86.4 163.3,220.4 163.3,375.3 0,53 -5.7,108.4 -16.5,165.2 1480.4,-237.1 3067.7,-355.9 4058.8,-355.9 1796,0 5998,515.1 7618.8,1572.5 l -107.5,-165.9 c -163.4,-228.9 -343.3,-448.5 -554.4,-638.5 l -77,-73.3 c -25.9,-24.2 -54.5,-45.6 -81.5,-68.6 l -164.5,-135.8 -173.2,-125.5 c -29,-20.7 -57.5,-42.2 -87,-62.4 l -90.5,-57.6 c -60.5,-38.1 -120.1,-77.7 -181.4,-114.7 l -187.5,-105.9 c -61.7,-36.5 -126.5,-68.1 -190.8,-100.4 -64.6,-31.7 -127.8,-66 -193.5,-95.8 -131.9,-58.7 -262.2,-120.5 -397.4,-172.4 -133.3,-56 -269.8,-104.8 -406.2,-154.1 -138.2,-48.6 -277.5,-94.1 -417.8,-137.3 m -9748.8,707.6 c -5.5,46.8 -13.6,88.3 -23,122.7 23.5,-40.9 47.6,-79.2 72.2,-115 l -49.2,-7.7 m -1793.5,984.6 c -98.5,111.9 -190.5,229.3 -274.8,352 -17.4,25 -34.5,50.3 -51.2,75.7 48.2,-38.6 97.1,-76.4 146.7,-113.5 88.6,-66.2 193.2,-130 311.6,-191.5 -45.3,-38.5 -89.5,-79.4 -132.3,-122.7"
        style="fill:#d9d9ea;fill-opacity:1;fill-rule:nonzero;stroke:none" id="path28" />
      <path
        d="m 15309.1,26679.3 c -98.4,153.4 553.4,1524.5 1782.3,1119.6 442.6,-145.8 484.2,-577.4 141.1,-669.5 -326.9,-87.7 -474.1,-17 -980.8,-195.3 -286.7,-100.9 -844.2,-408.1 -942.6,-254.8"
        style="fill:#000072;fill-opacity:1;fill-rule:nonzero;stroke:none" id="path30" />
      <path
        d="m 25091.5,26679.3 c 98.5,153.4 -553.4,1524.5 -1782.2,1119.6 -442.6,-145.8 -484.3,-577.4 -141.2,-669.5 327,-87.7 474.2,-17 980.8,-195.3 286.7,-100.9 844.2,-408.1 942.6,-254.8"
        style="fill:#000072;fill-opacity:1;fill-rule:nonzero;stroke:none" id="path32" />
      <path
        d="m 14623.4,28839.8 c -596.7,-636.3 -972.7,-1526.7 -1025.8,-1422.7 -5.2,10 -10.3,21.9 -15.5,35.9 -113,291.6 -299.7,1447.7 -297.2,2477.5 0.8,166.1 5.3,312.8 14,442.1 23.4,349.1 73.3,572.7 134.4,715.8 75.8,174.9 245.6,228.3 395.9,169.3 399.4,-157.4 1533.5,-905.6 1902.6,-1384.7 65.9,-85.2 -511.3,-396.8 -1108.4,-1033.2"
        style="fill:#f27e80;fill-opacity:1;fill-rule:nonzero;stroke:none" id="path34" />
      <path
        d="m 14623.4,28839.8 c -596.7,-636.3 -972.7,-1526.7 -1025.8,-1422.7 -5.2,10 -10.3,21.9 -15.5,35.9 133.6,540.2 500.4,1286.5 781.5,1825.9 384.2,736.8 -142.6,1323.6 -600,1499.6 -156.8,60.5 -343.6,-197.3 -464.7,-405.9 23.4,349.1 73.3,572.7 134.4,715.8 75.8,174.9 245.6,228.3 395.9,169.3 399.4,-157.4 1533.5,-905.6 1902.6,-1384.7 65.9,-85.2 -511.3,-396.8 -1108.4,-1033.2"
        style="fill:#ff5c64;fill-opacity:1;fill-rule:nonzero;stroke:none" id="path36" />
      <path
        d="m 13483.3,29929.9 c -2.1,-769.6 104.7,-1602.4 197.4,-2070 182.9,304.7 452.3,746.6 798.3,1115.5 319.7,340.9 637.4,594.2 847.6,761.8 52.8,42.1 109.4,87.1 154.1,124.7 -421,449.7 -1393.4,1081 -1724.2,1211.1 -36.3,14.2 -102.9,25.1 -141.1,-63.3 -59.2,-138 -130.4,-437.9 -132.1,-1079.8 z m 290.8,-2422.6 h 0.5 z m -162.2,-296.7 c -3.3,0 -6.7,0 -10.1,0.1 -76.3,2.6 -145.6,47.2 -180.9,116.5 -134,262.8 -337,1533.9 -334.1,2603.8 1.6,577 55.4,981.1 164.5,1235.5 113.8,263.3 387.2,378.9 650.3,275.4 422.6,-166.1 1584.1,-924.6 1987.4,-1447.8 48.6,-62.9 103.4,-194.2 -74.8,-365.9 -56.6,-54.5 -137.7,-119.2 -240.4,-201 -213.4,-170.1 -505.6,-403 -805.6,-723 -330,-351.8 -593.3,-791.2 -767.7,-1081.9 -182.5,-304.5 -246.9,-411.7 -388.6,-411.7"
        style="fill:#000072;fill-opacity:1;fill-rule:nonzero;stroke:none" id="path38" />
      <path
        d="m 25798,28839.8 c 596.6,-636.3 972.7,-1526.7 1025.8,-1422.7 5.1,10 10.3,21.9 15.5,35.9 113,291.6 299.7,1447.7 297.2,2477.5 -0.8,166.1 -5.3,312.8 -14.1,442.1 -23.3,349.1 -73.2,572.7 -134.3,715.8 -75.8,174.9 -245.6,228.3 -395.9,169.3 -399.4,-157.4 -1533.5,-905.6 -1902.6,-1384.7 -65.9,-85.2 511.3,-396.8 1108.4,-1033.2"
        style="fill:#f27e80;fill-opacity:1;fill-rule:nonzero;stroke:none" id="path40" />
      <path
        d="m 25798,28839.8 c 596.6,-636.3 972.7,-1526.7 1025.8,-1422.7 5.1,10 10.3,21.9 15.5,35.9 -133.6,540.2 -500.4,1286.5 -781.5,1825.9 -384.2,736.8 142.6,1323.6 600,1499.6 156.8,60.5 343.5,-197.3 464.6,-405.9 -23.3,349.1 -73.2,572.7 -134.3,715.8 -75.8,174.9 -245.6,228.3 -395.9,169.3 -399.4,-157.4 -1533.5,-905.6 -1902.6,-1384.7 -65.9,-85.2 511.3,-396.8 1108.4,-1033.2"
        style="fill:#ff5c64;fill-opacity:1;fill-rule:nonzero;stroke:none" id="path42" />
      <path
        d="m 24940.7,29861.9 c 44.7,-37.6 101.3,-82.6 154.1,-124.7 210.2,-167.6 527.9,-420.9 847.6,-761.8 346,-368.9 615.4,-810.8 798.3,-1115.5 92.7,467.6 199.5,1300.4 197.4,2070 -1.7,641.9 -73,941.8 -132.4,1080.3 -37.9,87.8 -104.5,77.1 -140.8,62.8 -330.8,-130.1 -1303.3,-761.4 -1724.2,-1211.1 z m 1868.8,-2651.3 c -141.8,0 -206.1,107.2 -388.7,411.7 -174.3,290.7 -437.7,730.1 -767.6,1081.9 -300.1,320 -592.2,552.9 -805.6,723 -102.7,81.8 -183.8,146.5 -240.4,201 -178.2,171.7 -123.4,303 -74.8,365.9 403.3,523.2 1564.8,1281.7 1987.4,1447.8 263,103.5 536.5,-12.1 650.1,-274.9 109.3,-254.9 163.1,-659 164.7,-1236 2.9,-1069.9 -200.1,-2341 -334.2,-2603.8 -35.3,-69.3 -104.6,-113.9 -180.8,-116.5 -3.4,-0.1 -6.8,-0.1 -10.1,-0.1"
        style="fill:#000072;fill-opacity:1;fill-rule:nonzero;stroke:none" id="path44" />
      <path
        d="m 21522.2,16858.2 c 573.7,155.2 1151.6,269.3 1721.2,406.6 569.8,135.3 1135.3,280.7 1682.9,473.2 136.4,49.3 272.9,98.1 406.2,154.1 135.2,51.9 265.5,113.7 397.4,172.4 65.7,29.8 128.9,64.1 193.5,95.8 64.3,32.3 129.1,63.9 190.8,100.4 l 187.5,105.9 c 61.3,37 120.9,76.6 181.4,114.7 l 90.5,57.6 c 29.5,20.2 58,41.7 87,62.4 l 173.2,125.5 164.5,135.8 c 27,23 55.6,44.4 81.5,68.6 l 77,73.3 c 211.1,190 391,409.6 554.4,638.5 l 114.9,177.3 c 9.4,14.8 19.4,29.3 28.5,44.4 l 24.7,46.7 49.5,93.2 49.6,93.1 c 8.1,15.6 16.9,30.9 24.5,46.7 l 20.6,48.7 82.4,194.4 20.8,48.6 16.4,50.3 32.6,100.6 c 20.5,67.5 46.3,133.3 62.7,202.1 l 47.7,206.7 24,103.3 15,105.4 30.4,210.7 c 2.3,17.5 5.5,35 7.2,52.7 l 3.3,53.3 6.6,106.6 13.5,213.2 c 0.5,71.4 -1.6,143 -2.2,214.4 l -3.2,214.5 -18.3,214.5 -18,214.6 -14.7,101.5 -18.5,105.3 c -53.7,283.5 -120,569.7 -189.5,853.8 -70.1,284.2 -144.6,567.8 -224.8,849.5 -159.8,563.3 -337.3,1122.1 -548.6,1662.9 l -20.4,52.1 12.1,54.6 c 183.5,824.8 315.6,1663.1 383.1,2503.8 32.3,420.3 49.3,841.4 37.2,1259.4 -11.9,417.2 -50.4,834.7 -151.1,1226 -50.2,194.9 -121,381.4 -217.2,540.5 -11.2,20.8 -24.8,38.8 -38,57.2 l -19.6,27.8 c -6.5,9.5 -13.1,19 -19.2,24.8 -12.6,13.3 -23.4,29.1 -37.6,39.7 l -19.8,18 c -6.9,5.5 -14.6,9.9 -21.7,15.1 -57.6,39.9 -127.8,64.3 -209.9,72.1 -81.7,8 -172.3,0.4 -264.3,-18 -92.1,-18.5 -185.8,-45 -279,-79.2 -186.6,-67.8 -370.8,-159.1 -551.1,-259.1 -360.7,-201.7 -706.3,-442.6 -1043.2,-694.9 -336.6,-253.4 -663.9,-521.9 -985.6,-797.5 l -91.3,-78.1 -112.1,48.1 c -268.9,115.3 -549.7,208.7 -836.1,286.7 -286.7,77.8 -580.1,135.7 -875,185 -295.2,48.7 -593.2,84.9 -892.3,110.3 -298.4,25.5 -600.4,41.4 -895.9,42.8 -295.5,-2.3 -597.5,-17.7 -895.9,-43.4 -299,-25.5 -597,-61.7 -892.1,-110.4 -294.9,-49.3 -588.3,-107.4 -874.9,-185.2 -286.3,-78 -567.1,-171.4 -836,-286.8 l -112.7,-48.4 -91.7,78.6 c -321.8,275.5 -649.1,543.9 -985.7,797.3 -336.9,252.2 -682.5,492.9 -1043.2,694.6 -180.3,99.9 -364.5,191.1 -551,258.8 -93.1,34.2 -186.7,60.6 -278.7,79.1 -91.9,18.4 -182.3,25.9 -263.8,17.9 -81.9,-7.8 -151.7,-32.1 -209,-71.8 -7.1,-5.2 -14.7,-9.5 -21.6,-15 l -19.7,-18 c -14.1,-10.6 -24.9,-26.2 -37.4,-39.5 -6.1,-5.8 -12.6,-15.3 -19.2,-24.7 l -19.5,-27.8 c -13.2,-18.4 -26.8,-36.3 -37.9,-57.1 -96.1,-158.9 -166.8,-345.2 -216.9,-540 -100.6,-391.1 -139,-808.5 -150.8,-1225.5 -12,-417.9 5,-839 37.4,-1259.2 67.7,-840.5 199.9,-1678.7 383.5,-2503.4 l 12.4,-55.6 -20.8,-52.8 c -212.3,-540.2 -388.3,-1099.7 -548.5,-1662.8 -79.7,-281.8 -154.5,-565.2 -224.5,-849.5 -69.5,-284 -135.8,-570.4 -189,-853.6 -13.5,-70.9 -24.8,-140.6 -33.3,-206.7 -8.4,-71.4 -15.6,-142.8 -21.8,-214.3 -12.1,-143 -19.4,-286.1 -21.3,-429 -3.8,-285.7 14.4,-570.8 59.7,-850.5 89,-559.5 293.6,-1097 615,-1559.6 319.2,-464.4 747,-851.5 1227.2,-1160.9 481.3,-309.6 1011.3,-547.2 1557.4,-740.4 546.8,-194.1 1112.7,-337.7 1683.2,-468.9 l 213.9,-50.4 214.8,-48.3 429.9,-99.1 c 287.1,-66.7 574.9,-135.5 860.6,-218.7 45.2,-13.1 71.2,-60.5 58,-105.7 -11.7,-40.2 -50.5,-65.2 -90.7,-60.9 h -0.4 c -586.2,61.6 -1173.3,138.8 -1756.9,254.5 -583.2,115.4 -1162.2,267.8 -1728.7,466.3 -565.6,199 -1120.7,445.7 -1633.4,774.1 -511.2,328.1 -977.6,746.1 -1329,1255.3 -353.8,506.9 -579.8,1099.7 -676.8,1704.8 -49.4,302.7 -69.3,608.7 -65.9,912.9 1.8,152.1 9.3,303.8 21.9,454.9 6.3,75.5 13.8,150.8 22.5,226 10.1,80.2 22.5,156.2 36.4,230.2 55.3,296.8 121.8,585.7 192,874.8 70.5,288.8 145.8,576.1 226.2,862.2 161.7,572 339,1140.1 557.4,1698.9 l -8.4,-108.4 c -188.8,841.3 -324.9,1693.5 -395.8,2554.7 -34,430.8 -52.5,863.9 -40.8,1299.4 12.1,435.2 49.6,874.1 160.7,1311.1 56.3,217.9 135.3,436.3 259.9,643.3 14.3,26.2 32.5,51.2 50.2,76.3 l 26.7,37.6 c 8.7,12.4 17.4,24.9 29.8,38.4 23.2,26.3 44.7,53.6 72.3,76.7 l 39.9,35.5 c 13.9,11.1 28.9,21.1 43.5,31.5 117.9,82.5 257.8,126 388.1,138.1 131.3,12.8 255.8,0.5 373,-22.2 117.2,-23.2 229.5,-55.4 336.8,-94.5 214.9,-77.8 414.5,-176.9 607.5,-283.3 385.1,-214.6 741.8,-462.8 1088.5,-721.3 345.9,-259.4 679.4,-532.1 1006.6,-811.1 l -204.5,30.2 c 291.2,125.8 589.7,225.3 891.1,308 301.7,82.4 606.8,143.3 912.7,195 306.1,51.1 613.5,89 921.7,115.8 308.7,26.7 615.9,44.3 929.8,45.6 313.9,-2.2 621.1,-19.3 929.8,-46.2 308.1,-26.9 615.5,-64.8 921.6,-115.9 305.9,-51.8 611,-112.7 912.5,-195.2 301.4,-82.7 599.9,-182.3 891,-308.1 l -203.3,-30 c 327.2,278.9 660.7,551.5 1006.6,810.9 346.7,258.3 703.4,506.5 1088.5,720.9 193,106.4 392.5,205.4 607.3,283.1 107.2,39.1 219.4,71.2 336.5,94.4 117.2,22.7 241.5,34.9 372.5,22.1 130.1,-12.1 269.6,-55.5 387.3,-137.9 14.5,-10.3 29.5,-20.2 43.4,-31.4 l 39.7,-35.4 c 27.6,-23 49,-50.3 72.2,-76.5 12.3,-13.5 21,-25.9 29.7,-38.3 l 26.6,-37.6 c 17.8,-25.1 35.9,-50 50.2,-76.2 124.4,-206.8 203.3,-425.1 259.5,-642.9 111,-436.7 148.5,-875.4 160.5,-1310.5 11.6,-435.5 -7,-868.5 -41,-1299.2 -71.1,-861.1 -207.4,-1713.1 -396.3,-2554.3 l -8.2,106.7 c 217,-558.9 395.7,-1126.6 556.7,-1698.6 80.7,-286 155.5,-573.3 226.1,-862 70.1,-289.2 136.5,-578.1 192,-874.5 l 19.5,-112.7 16.7,-117.4 18.8,-226.4 18.5,-226.5 3.1,-227.9 c 0.6,-76 2.5,-152 1.7,-228 l -14.7,-228.4 -7.5,-114.2 -3.7,-57.1 c -2,-19 -5.3,-37.9 -7.9,-56.8 l -33.1,-227.3 -16.7,-113.6 -26.1,-112.2 -52.4,-224.3 c -18.2,-74.6 -46,-146.8 -68.7,-220.3 l -35.9,-109.7 -18.2,-54.8 -22.7,-53.2 -90.7,-212.7 -22.8,-53.2 c -8.4,-17.3 -17.9,-34.1 -26.8,-51.2 l -54.5,-102.1 -54.7,-102 -27.3,-50.9 c -9.9,-16.6 -20.8,-32.5 -31.2,-48.7 l -126.2,-193.9 c -178.8,-250.3 -376.5,-489 -604.6,-693.9 l -83.6,-78.8 c -28,-26.1 -58.6,-49.1 -87.8,-73.8 l -177.1,-145.5 -185.3,-133.8 c -31.1,-22 -61.7,-44.8 -93.1,-66.3 l -96.1,-61.1 c -64.4,-40.3 -127.9,-82.2 -192.9,-121.1 l -198.1,-111.4 c -65.4,-38.5 -133.3,-71.5 -200.9,-105.2 -67.8,-33.3 -134.5,-69 -203.2,-100.1 -137.7,-61.1 -274.3,-125.3 -414.7,-178.9 -138.9,-58 -280.3,-108.2 -421.5,-158.9 -283.6,-97.2 -569.2,-187.7 -858.4,-261.6 -144,-39.5 -289.3,-72.3 -434.1,-107.8 -145.4,-31.3 -290.9,-63.2 -436.8,-90.9 -583.6,-113.9 -1170.3,-193.1 -1754.7,-264.1 l -0.6,-0.1 c -46.6,-5.6 -89.1,27.6 -94.7,74.3 -5.2,42.6 22,81.6 62.2,92.4"
        style="fill:#000072;fill-opacity:1;fill-rule:nonzero;stroke:none" id="path46" />
      <path
        d="m 21651,21337.1 c 0,0 0.3,-884.3 -790.7,-837.6 -560.4,32.8 -676.6,494 -685,531.2 -8.7,-37.2 -124.9,-498.4 -685.3,-531.2 -791.4,-46.7 -791,837.6 -791,837.6 l 1469.4,1145.9 h 13.5 L 21651,21337.1"
        style="fill:#e8e8e8;fill-opacity:1;fill-rule:nonzero;stroke:none" id="path48" />
      <path
        d="m 21643.1,21331.2 c 0,0 -258.1,-672.8 -858.6,-516.2 -683.7,178.3 -599.9,993.9 -599.9,993.9 h -25.3 c 0,0 80.6,-815.8 -603.7,-991.4 -601.2,-154.3 -856.6,519.6 -856.6,519.6 0,0 -168.4,1510.5 1469.2,1510.5 1637.7,0 1474.9,-1516.4 1474.9,-1516.4"
        style="fill:#ffffff;fill-opacity:1;fill-rule:nonzero;stroke:none" id="path50" />
      <path
        d="m 21565.9,21181.1 c -116.1,-188.3 -367.5,-474.1 -781.2,-365.9 -684.1,178.2 -600.3,993.8 -600.3,993.8 h -24.9 c 0,0 80.6,-816.2 -604.1,-991.7 -413.6,-106.1 -664,180.3 -779.6,369.1 115.6,-10.6 241.3,-1.6 378.1,33.4 1130.2,290.1 997.1,1397.4 997.1,1397.4 h 41.9 c 0,0 -138.5,-1106.8 990.6,-1401.6 138.4,-36.1 265.7,-45.6 382.4,-34.5"
        style="fill:#e8e8e8;fill-opacity:1;fill-rule:nonzero;stroke:none" id="path52" />
      <path
        d="m 18791.7,21372.2 c 20.4,-33.1 46.4,-74.2 72.9,-108.9 25.7,-36.4 54.7,-69.9 83.5,-102.2 58.7,-63.7 123.5,-117.5 192.1,-153.6 68.1,-37.6 139.7,-55.9 213.4,-61.6 37.7,3.2 74.8,-1.1 113.5,9.9 19.1,4.5 38.5,5.8 57.8,11.2 l 57.7,19 c 154.2,50.4 271,158.5 350.5,305.5 39.9,73.2 68.7,156.4 89.4,243 11.1,43.1 18.3,87.8 25.2,132.6 6.1,43.7 11.3,92.7 13,132.1 l 0.3,7.6 c 2.5,54.7 48.8,97.1 103.5,94.7 47.7,-2.1 86,-37.6 93.5,-82.9 9.8,-58.9 13.5,-108.8 14.6,-163.4 1.4,-53.6 -1.3,-107.2 -7.2,-161.1 -12.4,-107.4 -35.2,-216.8 -82.4,-320.9 -85.5,-209.5 -274.5,-398.5 -497,-471.5 l -82.5,-28 c -27.9,-8.4 -58,-12.2 -87.1,-17.6 -57.5,-13.2 -120.2,-9.8 -180.7,-10.6 -123.4,9.3 -243.6,52.8 -344,117.4 -100.4,65.6 -180.8,150.1 -243.5,241.4 -31.1,46 -58.7,93.4 -82.3,142.4 -24.2,49.9 -42.5,97.2 -59.6,155.2 -15.4,52.6 14.7,107.6 67.2,123 43.8,12.8 89.4,-6 112.2,-43 l 6,-9.7"
        style="fill:#000072;fill-opacity:1;fill-rule:nonzero;stroke:none" id="path54" />
      <path
        d="m 21735.6,21295.7 c -17.2,-58 -35.8,-105.2 -60.2,-155 -23.8,-48.9 -51.6,-96.2 -82.8,-142 -63.1,-91.1 -143.9,-175.3 -244.5,-240.5 -100.6,-64.1 -221,-107.2 -344.5,-116 -60.5,1.1 -123.1,-2.1 -180.6,11.4 -29.1,5.4 -59.1,9.3 -87,17.8 l -82.4,28.4 c -222.2,73.9 -410.5,263.6 -495.2,473.5 -46.7,104.3 -69.1,213.8 -81.1,321.1 -5.6,54 -8.2,107.7 -6.5,161.2 1.3,54.6 5.2,104.5 15.2,163.4 9.2,54 60.5,90.3 114.5,81.1 47,-8 80.6,-47.9 82.4,-93.7 l 0.3,-7.7 c 1.6,-39.3 6.6,-88.3 12.5,-132.1 6.7,-44.9 13.7,-89.5 24.7,-132.7 20.4,-86.7 48.8,-170 88.4,-243.3 78.9,-147.4 195.3,-255.9 349.3,-306.9 l 57.6,-19.2 c 19.3,-5.6 38.7,-6.9 57.8,-11.5 38.7,-11.1 75.7,-6.9 113.5,-10.3 73.6,5.3 145.3,23.3 213.6,60.7 68.8,35.9 133.7,89.4 192.7,152.8 28.9,32.3 58,65.6 83.9,101.9 26.6,34.6 52.8,75.6 73.3,108.6 l 6,9.6 c 28.9,46.5 90,60.7 136.5,31.8 38.7,-24.1 55,-70.7 42.6,-112.4"
        style="fill:#000072;fill-opacity:1;fill-rule:nonzero;stroke:none" id="path56" />
      <path
        d="m 20996.7,22234.8 c -0.3,-193 -252.4,-362.9 -483.6,-478.3 -241.9,-120.7 -512.7,-120.1 -754.1,1.5 -230.8,116.3 -482.2,287.2 -481.8,480.2 1.1,582 1720.7,578.6 1719.5,-3.4"
        style="fill:#000072;fill-opacity:1;fill-rule:nonzero;stroke:none" id="path58" />
      <path
        d="m 20137.7,22186.3 c -51,0 -102.1,8.8 -150.3,26.5 -91.5,33.5 -191.2,82.9 -191.1,138.5 0.1,83.6 169.3,125.2 339.1,125.2 171.1,0 342.9,-42.3 342.7,-126.5 -0.1,-55.7 -100,-104.6 -191.7,-137.8 -47.6,-17.3 -98.2,-25.9 -148.7,-25.9"
        style="fill:#8080b9;fill-opacity:1;fill-rule:nonzero;stroke:none" id="path60" />
      <path
        d="m 12877.8,21752 c -32.8,18.8 -70.7,39 -107.2,57.7 -36.3,19.7 -73.8,38 -111.5,55.9 -37.3,18.5 -75.1,35.9 -113.8,52.2 -38.6,16.1 -75.8,34.7 -114.6,50.3 -154.9,63.2 -310.6,124.2 -470.2,174.3 -318.3,101.7 -643.1,185.4 -974.3,235.9 -82.3,15.4 -166.1,20.8 -249,32.7 l -124.7,15.6 c -41.6,4.8 -83.5,5.8 -125.3,8.9 -83.7,5.2 -167.3,10.6 -251,17 l -251.83,3 c -168.27,7.4 -335.69,-12.6 -504.24,-16.9 l -63.18,-2.7 -62.8,-6.9 -125.72,-13.9 -252.23,-26 -5.89,-0.6 c -47.89,-5 -90.72,29.8 -95.66,77.7 -4.7,45.5 26.84,86.5 71.05,94.7 l 256.14,46.8 128.45,22.5 64.29,11.3 64.84,6.9 c 86.44,9.8 173.12,18.2 259.87,26.2 43.4,3.4 86.66,9.8 130.24,10.7 l 130.69,3.9 c 87.18,2.3 174.38,5.8 261.68,7 l 261.8,-10.1 c 43.6,-2.4 87.4,-2.7 130.9,-6.8 l 130.4,-13.6 c 86.8,-10.1 174.3,-15.9 260.5,-31.2 l 258.7,-44.1 c 86,-16.5 170.9,-38 256.2,-57.8 85.7,-18.2 168.9,-46.2 253.2,-69.8 84.3,-23.6 166.7,-53.8 249.1,-83.6 329.8,-121.4 644.8,-271.1 935.5,-484.5 38.8,-28.5 47.2,-83 18.7,-121.8 -26.5,-36.2 -75.7,-45.9 -113.7,-24.1 l -5.4,3.2"
        style="fill:#000072;fill-opacity:1;fill-rule:nonzero;stroke:none" id="path62" />
      <path
        d="m 13099.4,20445.6 c -142.7,17.1 -293.2,28.7 -440.3,34.8 -147.9,6.3 -295.8,8.6 -443.4,5.4 -294.9,-7.4 -589.2,-31.3 -876.9,-87.4 -143.9,-27.7 -286.5,-61.7 -425.8,-105.5 -70.2,-20.3 -138.3,-46.4 -207.4,-69.8 -67.5,-27.4 -136.3,-52.2 -201.9,-83.8 -267.1,-117.4 -515.14,-274.7 -741.84,-461.4 l -1.34,-1.1 c -37.23,-30.7 -92.27,-25.3 -122.92,11.9 -28.77,35 -25.56,85.9 5.7,117.3 220.56,220.3 477.9,407.4 759.1,546.3 140.1,70.2 284.9,131.3 433.7,179.6 148.3,50 299.4,91.1 452.5,120.7 305.6,62.2 617,89.9 926.8,83.9 310.7,-6.4 616.2,-40.3 921.2,-120.4 46.6,-12.2 74.5,-59.9 62.3,-106.6 -11.2,-42.6 -52.2,-69.6 -94.8,-64.5 l -4.7,0.6"
        style="fill:#000072;fill-opacity:1;fill-rule:nonzero;stroke:none" id="path64" />
      <path
        d="m 27422.4,21894.7 c 290.7,213.4 605.7,363.1 935.6,484.5 82.4,29.8 164.7,60 249,83.6 84.3,23.6 167.6,51.6 253.2,69.8 85.3,19.8 170.3,41.3 256.2,57.8 l 258.8,44.1 c 86.1,15.3 173.6,21.1 260.4,31.2 l 130.4,13.6 c 43.5,4.1 87.3,4.4 130.9,6.8 l 261.8,10.1 c 87.3,-1.2 174.6,-4.7 261.7,-7 l 130.7,-3.9 c 43.6,-0.9 86.8,-7.3 130.2,-10.7 86.8,-8 173.5,-16.4 259.9,-26.2 l 64.8,-6.9 64.3,-11.3 128.5,-22.5 256.1,-46.8 c 47.4,-8.6 78.8,-54 70.1,-101.4 -8.2,-45 -49.6,-75.6 -94.3,-71.1 l -6.3,0.7 -252.2,26 -125.7,13.9 -62.8,6.9 -63.2,2.7 c -168.5,4.3 -336,24.3 -504.2,16.9 l -251.8,-3 c -83.7,-6.4 -167.4,-11.8 -251.1,-17 -41.7,-3.1 -83.7,-4.1 -125.3,-8.9 l -124.7,-15.6 c -82.9,-11.9 -166.7,-17.3 -249,-32.7 -331.2,-50.5 -655.9,-134.2 -974.3,-235.9 -159.6,-50.1 -315.3,-111.1 -470.1,-174.3 -38.9,-15.6 -76.1,-34.2 -114.7,-50.3 -38.6,-16.3 -76.5,-33.7 -113.8,-52.2 -37.7,-17.9 -75.2,-36.2 -111.5,-55.9 -36.5,-18.7 -74.4,-38.9 -107.1,-57.7 l -5.5,-3.1 c -41.8,-24 -95,-9.6 -119,32.1 -22.3,38.9 -11.3,87.8 24,113.7"
        style="fill:#000072;fill-opacity:1;fill-rule:nonzero;stroke:none" id="path66" />
      <path
        d="m 27264,20616.1 c 305,80.1 610.6,114 921.2,120.4 309.8,6 621.2,-21.7 926.9,-83.9 153.1,-29.6 304.2,-70.7 452.4,-120.7 148.8,-48.3 293.6,-109.4 433.8,-179.6 281.1,-138.9 538.5,-326 759,-546.3 34.2,-34.1 34.2,-89.4 0.1,-123.5 -32,-32 -82.7,-34 -117,-6 l -1.6,1.4 c -226.7,186.7 -474.7,344 -741.9,461.4 -65.6,31.6 -134.4,56.4 -201.8,83.8 -69.2,23.4 -137.3,49.5 -207.5,69.8 -139.3,43.8 -281.8,77.8 -425.7,105.5 -287.8,56.1 -582,80 -877,87.4 -147.5,3.2 -295.4,0.9 -443.3,-5.4 -147.2,-6.1 -297.7,-17.7 -440.3,-34.8 l -4.7,-0.6 c -47.9,-5.7 -91.4,28.5 -97.1,76.3 -5.2,43.9 23,84 64.5,94.8"
        style="fill:#000072;fill-opacity:1;fill-rule:nonzero;stroke:none" id="path68" />
      <path
        d="m 11292.7,14077.9 c 417.7,948.9 686.5,1889.8 356.5,2733.5 -159.5,407.6 -543.3,704.5 -957.7,788.9 3.4,40.9 5.1,79.4 5.5,115.6 0.1,5.4 0.1,10.7 0.1,16 0.1,161.1 -25.8,274.4 -42.5,342.6 -0.1,0.3 -0.1,0.6 -0.1,0.9 0,1.2 0.6,2.1 1.7,2.8 2.6,1.5 7.5,2.2 14.2,2.2 20.9,0 59.1,-6.2 97.7,-12.4 38.7,-6.2 77.6,-12.4 99.8,-12.4 9,0 15.3,1 17.6,3.5 4.3,4.5 7,10.3 8.4,17.4 0.6,3.5 0.9,7.3 1,11.3 0,9.2 -1.7,19.8 -4.6,31.5 447.4,-114.7 883,-380.8 1137,-791.5 -42.6,-450.4 -55.3,-1069.8 74.4,-1707 -187.6,-610.7 -514,-1145.8 -809,-1542.9"
        style="fill:#797aa9;fill-opacity:1;fill-rule:nonzero;stroke:none" id="path70" />
      <path
        d="m 10885.4,18059.2 c -8.1,-8.6 -63.2,0.1 -117.4,8.9 -58.7,9.4 -116.6,18.8 -113.4,6.4 25.8,-105.2 73.3,-317.7 14,-647.1 -1.3,0.4 -2.2,0.4 -3.5,0.4 -16.6,3.9 -32.7,7 -49.3,9.2 -14.4,2.6 -28.8,4.3 -43.2,6.1 -11.4,1.3 -23.2,2.6 -34.9,3.5 -10.5,0.8 -21.4,1.7 -32.3,2.1 -30.6,1.8 -61.1,1.8 -91.7,0.5 -545.84,-23.1 -1041.1,-517.1 -841.25,-1748.5 280.14,-1730.1 -1601,-2271.2 -2292.18,-787.6 -30.54,65.9 -58.03,135.2 -83.78,207.7 347.78,-261 1216.56,-709.1 1698.3,-173.7 677.66,753.6 -245.67,2011.6 644.5,2938.4 283.19,294.6 825.11,368.8 1350.91,233.9 7,-27.5 6.6,-48.4 -4.8,-60.2"
        style="fill:#686868;fill-opacity:1;fill-rule:nonzero;stroke:none" id="path72" />
      <path
        d="m 10668.6,17427.4 c -84.7,17.8 -170.2,25.7 -254.9,21.8 -545.84,-23.1 -1041.1,-517.1 -841.25,-1748.5 280.14,-1730.1 -1601,-2271.2 -2292.18,-787.6 -30.54,65.9 -58.03,135.2 -83.78,207.7 -8.29,25.3 -17.02,51 -25.3,76.8 -431.57,1381.5 91.19,3773.6 2225.41,4275 97.75,23.5 199.42,42.3 304.58,57.1 143.99,20.1 285.82,32.3 424.62,35.8 140.6,-88 492.8,-431 590.3,-790.3 6,-22 -46,-11.9 -98,-1.8 -53,10.3 -106,20.5 -97.1,-3.3 59.3,-158.9 437.6,-634 364.5,-711 -8.1,-8.6 -63.1,0.2 -117.4,8.9 -58.7,9.4 -116.7,18.9 -113.6,6.5 25.7,-105.3 73.5,-317.6 14.1,-647.1"
        style="fill:#ffffff;fill-opacity:1;fill-rule:nonzero;stroke:none" id="path74" />
      <path
        d="m 10697,17715.9 c 1.8,169.6 -25.3,288.1 -42.5,358.6 -0.4,1.6 0.2,2.8 1.7,3.7 -1.1,-0.7 -1.7,-1.6 -1.7,-2.8 0,-0.3 0,-0.6 0.1,-0.9 16.7,-68.2 42.6,-181.5 42.5,-342.6 0,-5.3 0,-10.6 -0.1,-16"
        style="fill:#595969;fill-opacity:1;fill-rule:nonzero;stroke:none" id="path76" />
      <path
        d="m 10893.9,18076.5 c 2.1,11.4 0.7,25.9 -3.7,42.9 v 0 c 3,-11.8 4.7,-22.4 4.7,-31.6 -0.1,-4 -0.4,-7.8 -1,-11.3"
        style="fill:#595969;fill-opacity:1;fill-rule:nonzero;stroke:none" id="path78" />
      <path
        d="m 8467.14,14226.5 c -359.38,0 -759.98,210.3 -1013.11,728.2 239.11,-133.8 551.59,-258.6 847.67,-258.6 218.74,0 428.49,68.1 593.09,251 677.66,753.6 -245.67,2011.6 644.5,2938.4 192.62,200.4 505.01,298.8 850.61,298.8 162.4,0 332.2,-21.8 500.3,-64.9 4.4,-17 5.8,-31.5 3.7,-42.9 v 0 c -1.4,-7 -4.1,-12.8 -8.5,-17.3 -2.3,-2.5 -8.7,-3.5 -17.7,-3.5 -22.3,0 -61.2,6.2 -99.7,12.4 -38.6,6.2 -76.7,12.4 -97.5,12.4 -6.8,0 -11.8,-0.7 -14.3,-2.3 v 0 c -1.5,-0.9 -2.1,-2.1 -1.7,-3.7 17.2,-70.5 44.3,-189 42.5,-358.6 v 0 c -0.4,-36.2 -2.1,-74.7 -5.5,-115.6 -78.7,16 -158.6,24.4 -238.2,24.4 -95.5,0 -190.7,-12 -283.2,-37.3 -242.65,-66.4 -1015.4,-400.4 -770.04,-1914.9 136.79,-844.4 -275.89,-1285.7 -670.8,-1407.1 -82.7,-25.4 -171.06,-38.9 -262.12,-38.9"
        style="fill:#d9d9ea;fill-opacity:1;fill-rule:nonzero;stroke:none" id="path80" />
      <path
        d="m 13236.6,8414.3 c -854.3,0 -1654.4,293.4 -2271.5,872.5 -998.49,936.9 -1230.47,2383 -591,3683.9 40.3,82 81,164.2 121.7,246.4 599.8,1212.3 1220,2465.8 828.3,3467.1 -161.3,412.3 -657.6,677 -1061.9,566.4 -458.23,-125.2 -651.7,-694.3 -517.56,-1522.3 161.62,-997.6 -342.02,-1621.1 -912.82,-1796.6 -560.54,-172.1 -1306.29,41.7 -1709.62,907.8 -423.02,908.5 -338.65,2242.2 205.2,3243.4 345.88,636.7 1034.28,1434.5 2349.63,1619.5 1163.17,163.5 2239.67,-199.9 2953.67,-997.4 771.5,-861.7 1020.9,-2111.9 684.2,-3429.8 -86.5,-338.5 -247.2,-759.5 -417.3,-1205.3 -401,-1050.7 -900.1,-2358.3 -573.6,-3037.3 100.6,-209.3 382.6,-382.8 718.3,-442.2 543.4,-96.2 1115.5,102.6 1569.5,545.2 69.1,67.3 179.6,65.8 246.8,-3.2 67.3,-69 65.9,-179.5 -3.2,-246.8 -535.5,-521.9 -1218.7,-754.9 -1873.8,-638.9 -449.7,79.5 -822.2,322.6 -972.2,634.6 -391.6,814.4 115,2141.9 562,3313.1 166.5,436.1 323.7,848.1 405.2,1167.2 307.4,1203.3 86.5,2337 -606,3110.6 -635.1,709.3 -1599.3,1031.7 -2644.93,884.5 -1171.41,-164.7 -1783.94,-874.3 -2091.53,-1440.5 -551.27,-1014.8 -515.63,-2241.8 -195.48,-2929.3 314.67,-675.7 874.85,-849.4 1290.6,-721.5 394.91,121.4 807.59,562.7 670.8,1407.1 -245.36,1514.5 527.39,1848.5 770.04,1914.9 575.7,157.3 1253,-198.1 1479.1,-776 447.9,-1145 -207.1,-2468.8 -840.5,-3749.1 -40.6,-81.9 -81.1,-163.8 -121.3,-245.6 -579,-1177.9 -381.1,-2433 516.6,-3275.4 1012.6,-950.3 2588.9,-1036 4015.6,-218.3 83.7,47.9 190.3,18.9 238.2,-64.6 47.9,-83.7 19,-190.4 -64.7,-238.3 -707.2,-405.3 -1450.4,-605.8 -2156.5,-605.8"
        style="fill:#000072;fill-opacity:1;fill-rule:nonzero;stroke:none" id="path82" />
      <path
        d="m 29013.9,9475.6 c -4.4,-766.2 -298.1,-1331.7 -663.8,-1739.3 -532.3,-593.4 -1301.6,-918.9 -2098.4,-918.9 H 14149 c -796.8,0 -1566.1,325.5 -2098.5,918.9 -365.7,407.6 -659.3,973.1 -663.7,1739.3 -0.4,52.4 0.5,103.5 2.6,152.8 60.7,1500.2 1137.6,1603.1 1803.9,1159.8 19.7,-12.6 38.9,-26.2 57.6,-40.1 l 55.4,86.8 c 439.9,726.5 999.3,836.5 1517.3,700.4 807.7,-211.7 1515.4,-1021.6 1515.4,-1021.6 h 7722.6 c 0,0 652.4,746.6 1419.5,993.6 544.1,175.4 1145.9,99.5 1613.2,-672.4 l 54.6,-87.3 c 36.6,27.1 74.6,52.4 113.9,75.9 671.5,402.4 1697.4,263.2 1748.9,-1211.3 1.7,-44 2.6,-89.9 2.2,-136.6"
        style="fill:#8e8fb3;fill-opacity:1;fill-rule:nonzero;stroke:none" id="path84" />
      <path
        d="m 13653.5,10649.6 c -29.2,0 -41.6,19.4 -31.8,67.3 43.7,212.3 427.6,582.3 790.6,582.3 20.6,0 41.2,-1.2 61.6,-3.7 316.8,-38.5 157.7,-232.5 -84.7,-300 -290.8,-81 -627.7,-345.9 -735.7,-345.9"
        style="fill:#c7c7d9;fill-opacity:1;fill-rule:nonzero;stroke:none" id="path86" />
      <path
        d="m 26741.6,10649.6 c -107.9,0 -444.8,264.9 -735.6,345.9 -123.3,34.3 -225,101.3 -253.5,164 82.5,43.3 159.9,89.9 232.7,139.7 362.3,-1.5 744.7,-370.4 788.3,-582.3 9.8,-47.9 -2.6,-67.3 -31.9,-67.3"
        style="fill:#c7c7d9;fill-opacity:1;fill-rule:nonzero;stroke:none" id="path88" />
      <path
        d="m 25058,8530.3 c -152.9,0 -302.5,28.1 -445.3,83 l 53.6,308.7 h 312.6 c 1.3,-31.9 20.3,-61.9 51.4,-75.9 11.6,-5.2 23.8,-7.7 35.7,-7.7 33.3,0 65.1,19.2 79.6,51.6 28,62.1 56,124.8 82.7,188.4 12.9,31.8 28.7,63.1 38.8,95.8 l 30.6,97.8 c 20.2,65.4 41.2,131.2 58.4,197.4 14.6,66.5 29.3,133.2 42.7,200.2 l 20.6,100.5 14.3,100.8 26.3,202.2 c 14.5,134.9 21.7,269.9 29.5,405 2.5,134.6 6.9,269.6 5.1,404.1 -1.4,52.4 -2.5,104.9 -3.6,157.4 24.8,9.9 49.2,20 73.4,30.4 133.9,-1003.5 -157.6,-1718.7 -130.8,-1868.4 20,-111.2 68.1,-156.9 133.5,-156.9 299.1,0 960.8,954.6 960.8,954.6 l 108.7,-17 c -191.3,-398.1 -281.9,-762.6 -511.4,-978.8 v 0 c -73.8,-69.4 -148.8,-131.3 -225.2,-184.6 v -0.4 c -109.9,-77.8 -221.8,-139.3 -334.2,-185.2 l -0.1,-0.1 c -1,-0.4 -2,-0.8 -3.1,-1.2 -0.2,-0.1 -0.5,-0.2 -0.7,-0.3 -0.6,-0.3 -1.2,-0.5 -1.8,-0.8 -167.9,-67.7 -336.8,-100.6 -502.1,-100.6 m -9699.8,0.1 c -334.9,0 -685.1,135.3 -1010.3,421.2 l -0.4,0.2 c -8.5,7.5 -17,15.1 -25.5,22.8 -10.4,9.5 -20.8,19.2 -31.2,28.9 v 0 c -231,217.7 -321.1,585.9 -515.2,987.5 65.7,-93.6 672.2,-946.3 955,-946.3 65.4,0 113.5,45.7 133.5,156.9 29.6,164 -323.3,1006.8 -80,2164.2 12.2,-3.2 24.2,-6.5 36.3,-10 -1.2,-23.8 -2.5,-47.5 -3.8,-71.2 -6.1,-133.8 -7.6,-268.4 -10.8,-402.5 -0.2,-134.4 4.4,-269.4 6.4,-403.9 9.1,-135.1 17.4,-269.9 30.6,-404.7 l 27.1,-202 13.8,-100.7 20.1,-100.5 42.4,-200 c 16.3,-66.3 38.1,-131.9 57.4,-197.4 l 29.7,-98 c 10.3,-32.5 25.6,-64 38.2,-95.9 26,-63.7 53.6,-126.5 80.5,-189 13.9,-32.2 45.7,-52.7 80.1,-52.7 7.6,0 15.4,1 23.2,3.1 37.8,10.5 62.9,44.3 64,81.6 h 319.1 l 59.6,-343.9 c -110.4,-31.6 -224.2,-47.7 -339.8,-47.7"
        style="fill:#797aa9;fill-opacity:1;fill-rule:nonzero;stroke:none" id="path90" />
      <path
        d="m 29013.9,9475.6 c -4.4,-766.2 -298.1,-1331.7 -663.8,-1739.3 -532.3,-593.4 -1301.6,-918.9 -2098.4,-918.9 H 14149 c -796.8,0 -1566.1,325.5 -2098.5,918.9 -365.7,407.6 -659.3,973.1 -663.7,1739.3 -8.3,1645.5 1118.4,1770.3 1806.5,1312.6 718.7,-653.2 715.7,-1424.7 1097.5,-1784.7 1086.9,-1025 2483.7,-323.3 2655.6,1510.2 25.8,274.9 23.6,575.6 -10.9,899.8 -267,2505.6 3272.7,1330 3272.7,1330 0,0 3539.7,1175.6 3272.2,-1330 -34.5,-324.2 -36.2,-624.9 -10.9,-899.8 172.4,-1833.5 1568.7,-2535.2 2655.7,-1510.2 389.2,366.6 378.7,1159.4 1137.6,1820 691.6,414.6 1759.3,254.4 1751.1,-1347.9"
        style="fill:#ffffff;fill-opacity:1;fill-rule:nonzero;stroke:none" id="path92" />
      <path
        d="m 29013.9,9475.6 c -2.7,-459 -109.1,-846 -272.8,-1170.3 -109.5,-216.8 -244.3,-405.8 -391,-569 -532.3,-593.4 -1301.6,-918.9 -2098.4,-918.9 H 14149 c -796.8,0 -1566.1,325.5 -2098.5,918.9 -110.8,123.5 -214.7,261.4 -306.3,415 -210.8,353.5 -354.3,790.3 -357.4,1324.3 -8.3,1645.5 1118.4,1770.3 1806.5,1312.6 718.7,-653.2 715.7,-1424.7 1097.5,-1784.7 18.7,-17.4 37.5,-34.9 56.3,-51.5 l 0.8,-0.4 c 939.1,-825.6 2084.9,-394.9 2476.8,919.8 58.5,195.1 99.9,409.3 121.7,642.3 25.8,274.9 23.6,575.6 -10.9,899.8 -267,2505.6 3272.7,1330 3272.7,1330 0,0 3539.7,1175.6 3272.2,-1330 -34.5,-324.2 -36.2,-624.9 -10.9,-899.8 21.8,-233 63.7,-448.1 121.8,-643.2 369.5,-1236.6 1405.5,-1690.8 2308.7,-1052 v 0.4 c 76.4,53.3 151.4,115.2 225.2,184.6 389.2,366.6 378.7,1159.4 1137.6,1820 691.6,414.6 1759.3,254.4 1751.1,-1347.9"
        style="fill:#ffffff;fill-opacity:1;fill-rule:nonzero;stroke:none" id="path94" />
      <path
        d="m 26251.7,6991.7 h -2486.9 c 402.1,283.7 691.7,720.7 781.3,1237.3 l 66.6,384.2 c 142.8,-54.9 292.4,-83 445.2,-83 277.9,0 566.2,93.1 842.1,288.3 -144,-320.7 -413.2,-1096.1 202.9,-1368 198.5,-87.8 402.1,-125.6 605.3,-125.6 574.4,-0.1 1146.8,302 1600.1,631.3 -28.3,-34.9 -57.6,-69.4 -88.1,-103.3 -491.1,-547.3 -1208.6,-861.2 -1968.5,-861.2 m -9711.8,0 H 14149 c -731.8,0 -1424.2,291 -1913.1,801.4 407.3,-259.5 883.3,-468.1 1360.7,-468.1 203.2,0 406.6,37.8 605.2,125.5 784.5,346.5 133.5,1509.4 133.5,1509.4 0,0 3.9,-2.6 11.8,-7.9 l 0.8,-0.4 c 325.2,-285.9 675.4,-421.2 1010.3,-421.2 115.6,0 229.4,16.1 339.8,47.7 l 60.5,-349.1 c 89.6,-516.6 379.2,-953.6 781.4,-1237.3"
        style="fill:#d9d9ea;fill-opacity:1;fill-rule:nonzero;stroke:none" id="path96" />
      <path
        d="m 26052.1,9071.5 c 106.8,99.6 177.2,244.4 236.7,398.4 59.4,154.9 111.9,318.8 175,482.5 62.6,163.8 135.9,328.5 230,484.9 93.4,156.7 206.4,304.5 336.1,438.1 67.2,69.2 177.9,70.9 247.1,3.6 69.3,-67.2 70.9,-177.8 3.7,-247.1 -3.4,-3.4 -6.8,-6.7 -10.3,-9.7 l -2.5,-2.2 c -117.8,-102.7 -224.6,-219.2 -318,-349 -93.9,-129.5 -173.3,-272.4 -245.8,-422.6 -73.2,-149.9 -138.7,-307.3 -215.5,-466.1 -39.8,-79.3 -81,-159.2 -133.9,-236.1 l -40.2,-57.2 c -15,-18.4 -31.3,-36.4 -46.9,-54.4 l -23.7,-26.9 c -8.4,-8.6 -18.2,-16.4 -27.3,-24.5 l -55.5,-48 c -36.4,-31.4 -91.3,-27.4 -122.8,9 -30.6,35.5 -27.5,88.7 6.5,120.5 l 7.3,6.8"
        style="fill:#000072;fill-opacity:1;fill-rule:nonzero;stroke:none" id="path98" />
      <path
        d="m 14236.4,8935.2 -55.5,48 c -9.1,8.1 -18.8,15.9 -27.3,24.5 l -23.7,26.9 c -15.6,18 -31.9,36 -46.9,54.4 l -40.2,57.2 c -52.9,76.9 -94.1,156.8 -133.9,236.1 -76.8,158.8 -142.3,316.2 -215.5,466.1 -72.4,150.2 -151.9,293.1 -245.8,422.6 -93.4,129.8 -200.2,246.3 -318,349 l -2.2,1.9 c -72.8,63.4 -80.3,173.8 -16.9,246.6 63.4,72.7 173.8,80.3 246.6,16.9 3.5,-3.2 7.2,-6.7 10.5,-10 129.7,-133.6 242.8,-281.4 336.2,-438.1 94,-156.4 167.3,-321.1 229.9,-484.9 63.1,-163.7 115.6,-327.6 175,-482.5 59.5,-154 129.9,-298.8 236.7,-398.4 l 7.2,-6.7 c 35.2,-32.8 37.1,-87.9 4.4,-123 -32,-34.3 -85.4,-36.9 -120.6,-6.6"
        style="fill:#000072;fill-opacity:1;fill-rule:nonzero;stroke:none" id="path100" />
      <path
        d="m 29013.7,9475.7 h 0.5 -0.5 m -16548,1366.7 c -132.3,0 -258.9,-27.2 -369,-83 -353.6,-179.4 -538.7,-623 -535.2,-1282.8 3.3,-623.6 211.5,-1169.9 618.9,-1623.7 491.2,-547.3 1208.7,-861.2 1968.6,-861.2 h 12102.7 c 759.9,0 1477.4,313.9 1968.5,861.2 407.4,453.8 615.6,1000.1 618.9,1623.7 3.5,660 -181.6,1103.6 -535.2,1282.9 -300.4,152.3 -722.8,91.2 -1051.1,-152.1 l -151.7,-112.4 -154.8,247.4 c -248.7,410.8 -553.7,633.7 -908,664.9 -883,77.5 -1836,-997.8 -1845.5,-1008.7 l -52.2,-59.5 -79.2,-0.1 h -7801.5 l -52.1,59.7 c -9.5,10.7 -962.6,1086 -1845.5,1008.6 -354.2,-31.2 -659.3,-254.1 -906.6,-662.7 l -158.4,-248 -150.3,111.2 c -207.7,153.8 -453.1,234.6 -681.3,234.6 m 13786,-4199.8 H 14149 c -858.9,0 -1671.1,356.2 -2228.4,977.2 -466.1,519.2 -704.4,1143.3 -708.1,1855 -5.4,1011.8 392,1426.3 726.3,1595.9 372.7,189 850.4,155 1259.2,-79.7 300.5,466.6 682.6,724.7 1134.6,764.1 935.6,81.7 1851.9,-820.5 2083.5,-1067 h 7568.4 c 231.7,246.5 1147.9,1148.6 2083.5,1067 451,-39.3 832.3,-296.3 1134.5,-764.1 408.8,234.8 886.4,268.9 1259.2,79.8 334.4,-169.5 731.8,-584 726.5,-1596 -3.8,-711.7 -242,-1335.8 -708.2,-1855.1 -557.2,-620.9 -1369.4,-977.1 -2228.3,-977.1"
        style="fill:#000072;fill-opacity:1;fill-rule:nonzero;stroke:none" id="path102" />
      <path
        d="m 15755.6,12991.8 c -2783.9,53.2 -3504.4,1897.3 -3579,3435.4 -28.4,578.2 34.5,1113.2 113.5,1493.7 l 3251.7,510.1 c 36.2,-110.4 82.9,-216.9 138.8,-319 594.3,-1094.4 2179.6,-1718.4 2179.6,-1718.4 0,0 1725.7,-3475.5 -2104.6,-3401.8"
        style="fill:#8e8fb3;fill-opacity:1;fill-rule:nonzero;stroke:none" id="path104" />
      <path
        d="m 14885.3,13253.8 c -781.4,151.5 -1390.2,495.9 -1815.9,1029.1 -257.7,322.7 -429.1,687.4 -540.2,1058.5 466.3,-510.5 1158.4,-890.7 2168,-1004.6 l 188.1,-1083"
        style="fill:#797aa9;fill-opacity:1;fill-rule:nonzero;stroke:none" id="path106" />
      <path
        d="m 15680.6,18112 c -282.8,-584.7 -773.3,-1050.3 -1351.9,-1352.3 -661.5,-345.1 -1437.8,-477.8 -2152.1,-332.5 -28.4,578.2 34.5,1113.2 113.5,1493.7 l 3251.7,510.1 c 24.9,-76.4 55,-150.6 89.5,-223 15.7,-32.3 31.8,-64.6 49.3,-96"
        style="fill:#ffffff;fill-opacity:1;fill-rule:nonzero;stroke:none" id="path108" />
      <path
        d="m 14326.7,16758.7 c 0.6,0.3 1.3,0.7 2,1 488.1,254.7 913.4,625.9 1204.3,1086.7 v 0 c -290.9,-460.8 -716.2,-832 -1204.3,-1086.7 -0.7,-0.4 -1.4,-0.8 -2,-1"
        style="fill:#797aa9;fill-opacity:1;fill-rule:nonzero;stroke:none" id="path110" />
      <path
        d="m 13782.5,16646.8 c -278.7,0 -542.6,89.3 -646.3,307.1 48.7,-2.3 95.7,-3.6 141.4,-3.6 6.7,0 13.4,0.1 20,0.1 v 0 0 c 980.3,3.8 1336,490.3 1436.6,924 124.9,49 248.1,96.1 366.1,140.3 135.9,-92.9 277.1,-133.2 413.8,-133.2 1.7,0 3.5,0 5.3,0 4.5,-11.8 9,-23.5 13.6,-35.1 -290.9,-460.8 -716.2,-832 -1204.3,-1086.7 -0.7,-0.3 -1.4,-0.7 -2,-1 -0.7,-0.3 -1.3,-0.5 -1.9,-0.7 -157.2,-70 -353.2,-111.2 -542.3,-111.2"
        style="fill:#d9d9ea;fill-opacity:1;fill-rule:nonzero;stroke:none" id="path112" />
      <path
        d="m 15873,12815.9 c -39.9,0 -80,0.4 -120.8,1.2 -1320.2,25.3 -2314.6,445.2 -2955.6,1247.9 -1120.7,1403.6 -761.1,3487.7 -677.6,3891.2 19.5,94.4 111.9,155.3 206.2,135.6 94.4,-19.6 155.1,-111.9 135.6,-206.3 -77.9,-376.7 -414.8,-2320.9 608.6,-3602.6 573.2,-717.8 1478,-1093.6 2689.5,-1116.8 1056.6,-20.7 1758.9,233.9 2089.2,755.4 495.7,782.7 42.3,1969.6 -103,2304 -439.4,38.8 -1991.1,308.1 -2374.2,2170.2 -19.4,94.4 41.3,186.7 135.8,206.2 94.4,19.4 186.7,-41.4 206.1,-135.8 385.6,-1873.9 2064.8,-1898 2146.1,-1898 h 0.7 l 108.4,0.2 48.7,-97.2 c 33.3,-67.1 809.2,-1658.1 126.3,-2736.3 -386.3,-610 -1149.8,-918.9 -2270,-918.9"
        style="fill:#000072;fill-opacity:1;fill-rule:nonzero;stroke:none" id="path114" />
      <path
        d="m 15994.3,18051.8 c -352.1,-265.3 -880.1,-277.5 -1257.6,379.2 97.8,-357.4 48.5,-1474.9 -1439.1,-1480.6 -51.9,-0.4 -105.6,0.9 -161.4,3.5 l -965.7,-144 c -67.6,2643 1739.8,3599.1 3260.5,2797.5 259.2,-136.6 507.4,-449.9 635.7,-767.6 126.6,-312.8 137,-630.1 -72.4,-788"
        style="fill:#ffffff;fill-opacity:1;fill-rule:nonzero;stroke:none" id="path116" />
      <path
        d="m 13297.6,16950.4 c 254.9,110 739.2,367.4 1017.2,828.7 208.5,346.9 232.1,708.2 292.8,744.4 10.8,6.5 28.2,9.3 51.4,9.3 68.5,0 186.6,-24.5 326.5,-49 139.8,-24.5 301.5,-49 457,-49 287.3,0 553.7,83.5 624.2,405 57.4,-141.7 90.9,-284.4 90.9,-412.7 0,-154.9 -48.8,-288.9 -163.3,-375.3 -42.3,-31.9 -87.2,-60.1 -134,-84 -105.8,-53.8 -221.6,-85.4 -340.9,-86.3 -1.8,0 -3.6,0 -5.3,0 -266.1,0 -549.2,152.5 -777.4,549.5 v 0 0 c 18,-65.6 31,-156.9 31,-262.1 0.2,-468.2 -255.6,-1213.8 -1470.1,-1218.5"
        style="fill:#d9d9ea;fill-opacity:1;fill-rule:nonzero;stroke:none" id="path118" />
      <path
        d="m 11996,16805.3 c -8.9,374.7 18.2,753.1 95.3,1125.6 79.4,371.4 211.9,738.4 420.8,1067.4 208.6,327.1 494.2,617.3 845.2,804.9 348.9,189.6 753.1,273.8 1146.1,248.3 196.7,-12 390.8,-49.8 577,-108.8 46.1,-16 92.8,-30.5 138.2,-48 l 135,-55.7 131.1,-63.5 c 21,-9.7 44.9,-23 68.9,-37 24.3,-13.3 45.6,-28.9 68.3,-43.4 174.3,-122.4 307.5,-274.8 419.5,-439.6 110.4,-165.8 199.5,-345.8 252.2,-546.7 25.5,-100.7 41.6,-207.3 37.4,-321.2 -6,-113 -33,-239.5 -110.9,-349 -18,-27.9 -41,-52.1 -63.6,-76.5 -11.7,-11.7 -24.6,-22.1 -37,-32.9 l -19,-15.9 -16.8,-11.8 -67,-45.7 -71.2,-40 c -97.3,-49.7 -204,-85.2 -315.9,-100.6 -224.1,-31.7 -464.3,35.2 -638.1,164.1 -178.1,126.3 -307.4,292.8 -406,464.6 l 319.7,132.9 0.1,-0.2 c 20.1,-65.8 32.1,-127.5 38.7,-189.5 6.8,-61.9 10.2,-123.5 7.9,-184.9 -2.1,-122.8 -23.3,-245 -57.7,-364.6 -35.7,-119.1 -89.7,-234.7 -160.1,-339.9 -71.1,-104.8 -158.5,-199.2 -257.3,-276.8 -99.2,-77.2 -208.3,-138 -320.3,-184.9 -112.9,-45.5 -228.6,-75.5 -344.4,-93.5 -231.7,-33.5 -461.3,-24.1 -679.8,24.2 -47.8,10.5 -77.9,57.8 -67.4,105.5 8.2,37.2 38.7,63.8 74.4,68.7 l 1.1,0.1 c 211.1,28.7 414.6,59.7 604.5,113.9 188.7,55.2 364,133 498.8,251.5 136.2,116.1 233.4,268.7 286.4,442.3 27.1,86.5 43.8,177.9 50.3,270.1 5.9,90.9 3.3,187.8 -12,266 v 0.2 l -1.7,7.2 c -21.7,93.8 36.7,187.5 130.5,209.3 76.9,17.8 153.7,-18.4 190.9,-83.6 81.5,-143.1 184.2,-268.4 303.8,-352.7 28.8,-23.7 61.4,-37 91.9,-55.7 32.6,-12.1 64,-28.2 97.5,-34.8 65.9,-17.2 134.2,-24.2 202.6,-13.4 68.4,9.6 136.4,31.7 201.1,64.6 l 47.8,26.6 45.6,31.3 11.2,7.7 6.9,6.3 c 4.5,4.2 9.8,7.7 14.1,12.1 7.7,9.6 17,17.5 23.2,28.4 29.3,39.1 44.6,97.7 48.5,165 2.4,68 -7.5,143.2 -26.7,218.6 -39.4,151.4 -112.8,302.7 -204,439 -91.5,135.7 -203.7,260.3 -328,346.9 -15.7,9.7 -31,21.4 -46.8,29.7 -15.3,8.9 -30.9,18 -51.3,27.3 l -114.4,55.5 -117.2,48.4 c -39.3,15.1 -79.6,27.4 -119.4,41.4 -160.5,50.7 -326,82.8 -492.3,93 -332.5,21.3 -667.6,-49.1 -958.8,-207 -292.8,-156.3 -534.9,-400.6 -716.7,-685 -181.7,-286 -301.5,-613.7 -373.9,-952.6 -70.3,-340.1 -96.2,-691.8 -87.8,-1044.2 v -0.7 c 2.3,-96.4 -74,-176.4 -170.4,-178.6 -96.4,-2.3 -176.3,74 -178.6,170.3 v 0"
        style="fill:#000072;fill-opacity:1;fill-rule:nonzero;stroke:none" id="path120" />
      <path
        d="m 25064.5,8922 c 537,1359.5 120.6,3745 -243.4,6292.3 H 15476.6 C 15112.5,12667 14696.2,10281.5 15233.2,8922 h 9831.3"
        style="fill:#8e8fb3;fill-opacity:1;fill-rule:nonzero;stroke:none" id="path122" />
      <path
        d="m 24978.9,8922 h -312.6 l 32.3,186.7 c 0.3,1.8 0.6,3.5 0.9,5.3 l 307.5,1773.2 c 44.9,10.9 89,22.4 132.2,34.4 0.7,-15.7 1.5,-31.3 2.3,-47 l 7.6,-389.9 c 0,-518.8 -35.5,-1032.9 -165.8,-1530.6 l -1.7,-6.3 c -2.2,-8.6 -3.1,-17.2 -2.7,-25.8 m -9340.5,0 h -319.1 c 0.2,8.5 -0.8,17.1 -3.1,25.7 l -1.8,6.4 c -136.7,495.7 -171.7,1011.7 -169.9,1530.5 2.1,337 18.9,675.4 45.7,1014 l 414.4,-2385.5 c 3.6,-20.8 7.4,-41.4 11.4,-62 l 22.4,-129.1"
        style="fill:#797aa9;fill-opacity:1;fill-rule:nonzero;stroke:none" id="path124" />
      <path
        d="m 24983.3,8954.1 c 130.3,497.7 165.8,1011.8 165.8,1530.6 l -7.6,389.9 c -6.7,130.3 -10.5,260.4 -19.5,390.8 -10.3,130.4 -18.4,260.8 -30.4,391.2 l -37.4,391.6 c -54.7,522.1 -125.6,1044.6 -196.6,1567.8 l -106.5,785.8 c -35.3,262.1 -70.9,524.7 -102.8,787.7 v 0.1 l 172.8,-149.9 h -9344.5 l 172.7,149.9 v -0.1 c -31.8,-263 -67.6,-525.5 -102.8,-787.7 l -106.9,-785.7 c -71.3,-523.2 -143,-1045.6 -197.8,-1567.8 -56,-521.9 -94,-1044.3 -97.3,-1563.7 -1.8,-518.8 33.2,-1034.8 169.9,-1530.5 l 1.8,-6.4 c 12.8,-46.5 -14.5,-94.5 -60.9,-107.3 -42.5,-11.7 -86.3,10.2 -103.3,49.6 -26.9,62.5 -54.5,125.3 -80.5,189 -12.6,31.9 -27.9,63.4 -38.2,95.9 l -29.7,98 c -19.3,65.5 -41.1,131.1 -57.4,197.4 l -42.4,200 -20.1,100.5 -13.8,100.7 -27.1,202 c -13.2,134.8 -21.5,269.6 -30.6,404.7 -2,134.5 -6.6,269.5 -6.4,403.9 3.2,134.1 4.7,268.7 10.8,402.5 7.5,133.5 12.9,267.5 22.2,400.9 10.3,133.1 19.5,266.4 31.6,399.3 48,531.5 116.5,1058.8 190.9,1584.1 37.3,262.6 76.4,524.7 117.9,786.2 41.1,261.6 80.8,523 124.6,783.8 v 0.1 l 21.6,149.8 h 151.2 9344.5 151.2 l 21.6,-149.8 v -0.1 c 43.8,-260.8 83.7,-522.2 124.7,-783.8 41.4,-261.5 81.3,-523.4 118.3,-786.2 74.7,-525.2 143.9,-1052.4 191.9,-1583.9 l 32.6,-399.3 c 9.3,-133.4 14.7,-267.4 22.2,-401 6.2,-133.8 7.2,-268.4 11,-402.5 1.8,-134.5 -2.6,-269.5 -5.1,-404.1 -7.8,-135.1 -15,-270.1 -29.5,-405 l -26.3,-202.2 -14.3,-100.8 -20.6,-100.5 c -13.4,-67 -28.1,-133.7 -42.7,-200.2 -17.2,-66.2 -38.2,-132 -58.4,-197.4 l -30.6,-97.8 c -10.1,-32.7 -25.9,-64 -38.8,-95.8 -26.7,-63.6 -54.7,-126.3 -82.7,-188.4 -19.7,-44 -71.3,-63.6 -115.3,-43.9 -39.5,17.7 -59.3,61.2 -48.7,101.7 l 1.7,6.3"
        style="fill:#000072;fill-opacity:1;fill-rule:nonzero;stroke:none" id="path126" />
      <path d="m 24858.8,16680.7 c 0,0 4097,-5005.3 -255.8,-5696 l 255.8,5696"
        style="fill:#8e8fb3;fill-opacity:1;fill-rule:nonzero;stroke:none" id="path128" />
      <path
        d="m 25011.4,16188.3 -224.2,-4992.7 c 818.4,169.2 1336,525.3 1539.9,1060.4 468.5,1230 -738.1,3127.4 -1315.7,3932.3 m -592.4,-5409.5 285.9,6365.4 289,-353 c 95.6,-116.9 2335.6,-2883.3 1659.5,-4659.1 -268.5,-705.3 -949.1,-1149.4 -2023.1,-1319.8 l -211.3,-33.5"
        style="fill:#000072;fill-opacity:1;fill-rule:nonzero;stroke:none" id="path130" />
      <path
        d="m 21762.8,6817.2 h -3221.7 c -1364.4,0 -2531.1,981.5 -2764.6,2325.8 l -995,5728.6 -90.7,889.5 c -94.3,924.3 631.2,1727.5 1560.4,1727.5 h 7795.3 c 931.7,0 1657.9,-807.3 1559.7,-1733.7 l -106.4,-1004.1 -972.2,-5607 c -233.2,-1344.7 -1400,-2326.6 -2764.8,-2326.6"
        style="fill:#00bdff;fill-opacity:1;fill-rule:nonzero;stroke:none" id="path132" />
      <path
        d="m 25366.8,16366.5 c -277.5,431.9 -762.1,721.8 -1320.4,721.8 h -724.8 c -265.1,0 -480,-214.9 -480,-480 v -181 h -1426.9 v 181 c 0,265.1 -214.9,480 -480,480 h -2918.8 c -273.5,0 -495.2,-221.7 -495.2,-495.3 v -165.7 h -774.1 v 165.7 c 0,273.6 -221.8,495.3 -495.3,495.3 -558.3,0 -1042.9,-289.8 -1320.4,-721.7 60.4,178.7 156.9,345.2 285.8,487.9 263.9,292.1 640.9,459.6 1034.5,459.6 h 7795.3 c 394.6,0 772.4,-168.2 1036.3,-461.7 128,-142.3 223.9,-308.1 284,-485.9"
        style="fill:#66d7ff;fill-opacity:1;fill-rule:nonzero;stroke:none" id="path134" />
      <path
        d="m 14954.5,14895.4 994,-5722.6 C 16168,7909 17258.4,6991.7 18541.1,6991.7 h 3221.7 c 1283.2,0 2373.6,917.6 2592.8,2181.9 l 971.2,5601.4 105.9,998.3 c 41.6,392.4 -86,785.8 -349.9,1079.1 -263.9,293.5 -641.7,461.7 -1036.3,461.7 h -7795.3 c -393.6,0 -770.6,-167.5 -1034.5,-459.6 -263.8,-292.1 -392.2,-684.2 -352.3,-1075.7 l 90.1,-883.4 m 6808.3,-8252.8 h -3221.7 c -1452.9,0 -2687.9,1039 -2936.5,2470.5 l -995.1,5728.6 c -0.7,4.1 -1.2,8.1 -1.6,12.2 l -90.7,889.5 c -50,489.6 110.6,979.9 440.5,1345.1 329.9,365.2 801.3,574.7 1293.5,574.7 h 7795.3 c 493.5,0 965.8,-210.4 1295.8,-577.3 330,-366.8 489.5,-858.7 437.5,-1349.4 l -106.4,-1004.1 c -0.4,-3.8 -1,-7.6 -1.6,-11.4 L 24699.5,9114 C 24451.3,7681.9 23216.2,6642.6 21762.8,6642.6"
        style="fill:#000072;fill-opacity:1;fill-rule:nonzero;stroke:none" id="path136" />
      <path
        d="m 25499.9,14750.8 -79.4,-457.8 -160.6,-926.4 -399.7,-2304.8 -162.4,-935.1 -323.7,-1868 c -144.5,-833.1 -867.5,-1441.3 -1713.2,-1441.3 h -5017.2 c -845.6,0 -1568.7,608.2 -1713.1,1441.3 l -91.2,526.6 -123.5,712.6 -64.6,371.8 -204.6,1180.3 -61.6,353.5 -580.3,3347.3 c -150.5,778.8 446.4,1501.9 1239.7,1501.9 h 8215.7 c 529.3,0 970.4,-321.6 1161.6,-766.7 39.2,-91.6 68,-188.5 84.2,-289.3 24,-143.1 23.5,-293.2 -6.1,-445.9"
        style="fill:#00bdff;fill-opacity:1;fill-rule:nonzero;stroke:none" id="path138" />
      <path
        d="m 22660.9,6991.7 h -5017.2 c -762.7,0 -1410.9,545.5 -1541.2,1297 l -102.2,589.1 785.3,451.4 c 767.9,-609.6 1847.1,-1046.3 3363.2,-1047 h 3.5 c 2099.8,0.9 3361.7,838.3 4118.8,1813.1 -910.2,20.5 -1467.5,654.5 -1219.2,2447.5 26.9,194.4 105.2,347.1 217.7,466.4 -77.2,-309.2 -113.7,-581.2 -113.7,-817.2 -0.2,-837.8 457.8,-1223.8 1178.9,-1223.7 85.8,0 175.5,5.4 268.4,16.3 23,2.7 45.7,5.9 68.1,9.7 l -469.1,-2705.6 c -130.4,-751.5 -778.5,-1297 -1541.3,-1297 m -6784.3,2599.7 -64.3,370.8 221.8,127.5 c 72,-92.4 148.5,-183.5 229.9,-272.8 l -387.4,-225.5"
        style="fill:#00a1ea;fill-opacity:1;fill-rule:nonzero;stroke:none" id="path140" />
      <path
        d="m 16785.6,9329.2 c -192.8,153.1 -366.1,317.1 -521.6,487.7 l 9078.5,5284.6 c 10.7,-105.4 6.1,-213.4 -14.7,-320.9 l -98.6,-568.8 c -254,-16.6 -752.7,-76.6 -1188.1,-294.5 -340.3,-169.5 -641.6,-435.7 -757.1,-852.5 L 16785.6,9329.2"
        style="fill:#66d7ff;fill-opacity:1;fill-rule:nonzero;stroke:none" id="path142" />
      <path d="m 16000.3,8877.8 -123.7,713.6 387.4,225.5 c 155.5,-170.6 328.8,-334.6 521.6,-487.7 l -785.3,-451.4"
        style="fill:#66c7f2;fill-opacity:1;fill-rule:nonzero;stroke:none" id="path144" />
      <path
        d="m 16034.1,10089.7 c -121,155.2 -229.3,314.1 -326,473.6 l -162,933.9 7869.9,4581.1 h 844.2 c 325.9,0 631.7,-144.2 839.2,-395.5 71.6,-86.8 128.5,-182.8 169.7,-284.6 l -9235,-5308.5"
        style="fill:#66d7ff;fill-opacity:1;fill-rule:nonzero;stroke:none" id="path146" />
      <path d="m 15812.3,9962.2 -104.2,601.1 c 96.7,-159.5 205,-318.4 326,-473.6 l -221.8,-127.5"
        style="fill:#66c7f2;fill-opacity:1;fill-rule:nonzero;stroke:none" id="path148" />
      <path
        d="m 16044.4,16078.3 c -325.9,0 -631.7,-144.2 -839.1,-395.5 -207.4,-251.3 -290.9,-578.9 -229.1,-898.9 l 1126.3,-6495.2 c 130.3,-751.5 778.5,-1297 1541.2,-1297 h 5017.2 c 762.8,0 1410.9,545.5 1541.3,1297 l 1125.6,6491.9 c 62.4,323.3 -21.1,650.9 -228.4,902.2 -207.5,251.3 -513.3,395.5 -839.2,395.5 h -8215.8 m 6616.5,-9435.7 h -5017.2 c -932.9,0 -1725.8,667.2 -1885.2,1586.4 l -1125.6,6492 c -81.1,419.3 29.2,852 303.1,1184 274,332 678,522.3 1108.4,522.3 h 8215.8 c 430.5,0 834.4,-190.3 1108.4,-522.3 273.9,-331.9 384.2,-764.7 302.6,-1187.3 L 24546.1,8229 c -159.4,-919.2 -952.2,-1586.4 -1885.2,-1586.4"
        style="fill:#000072;fill-opacity:1;fill-rule:nonzero;stroke:none" id="path150" />
      <path
        d="m 25649.1,11747.3 c -213.8,-410.2 -569,-706.9 -1045.9,-762.7 -1101.4,-128.3 -1725.8,495.7 -1325.7,2056.1 110.4,430.7 416.7,703.8 763.6,876.6 614.9,307.6 1355.8,300.7 1355.8,300.7 570.7,-720.5 621.4,-1763.8 252.2,-2470.7"
        style="fill:#ffffff;fill-opacity:1;fill-rule:nonzero;stroke:none" id="path152" />
      <path
        d="m 24334.8,10968.3 c -721.1,0 -1179.1,385.9 -1178.9,1223.7 0,244 39,526.4 121.6,848.7 110.4,430.7 416.7,703.8 763.6,876.6 -226.4,-536.7 -448.1,-1358.8 -90.7,-2036.5 166.8,-316.3 478,-456.6 813.2,-456.7 305.6,0 631.2,116.7 885.5,323.2 -141,-270.4 -343.4,-491.5 -601.6,-626.8 -114.6,-60 -240.1,-103.1 -376.2,-126.2 -22.4,-3.8 -45.1,-7 -68.1,-9.7 -92.9,-10.9 -182.6,-16.3 -268.4,-16.3"
        style="fill:#d9d9ea;fill-opacity:1;fill-rule:nonzero;stroke:none" id="path154" />
      <path
        d="m 25395.3,14043.5 c -500.9,-18 -1039.4,-127.9 -1446.8,-390.3 -202.6,-132.3 -362.6,-310.1 -447.6,-523.4 -10.4,-26.7 -20.2,-53.7 -28.8,-81.2 -8.2,-27.9 -15.7,-54.2 -23.3,-87.4 -15.4,-63.3 -30.5,-126.4 -43.1,-189.8 -25.7,-126.5 -46.9,-253.6 -57.1,-379.7 -21.6,-251.2 -8.6,-504.1 73.7,-717.8 39.9,-107.3 101.2,-199.7 176.3,-277.3 76.8,-76.1 170.6,-134.8 276.6,-176.2 212.8,-81.4 467.4,-96.2 717.3,-74.1 55.4,6.4 122.7,19 186.2,31.6 64.4,12.7 129.3,25.7 193.9,40.1 64.5,14.3 128.7,29.5 191.7,46 l 92.4,25.3 c 29.6,8.4 59.4,18.5 77.9,25.7 l 11.1,4.3 c 71.7,28 152.6,-7.4 180.6,-79.2 26.3,-67.4 -4,-143.1 -67.2,-175.2 -42.7,-21.5 -76.6,-34.4 -111.1,-47.5 -34.3,-12.8 -67.8,-24.1 -101.2,-34.9 -66.9,-21.4 -133.3,-41.1 -199.8,-59.9 -66.7,-18.5 -133.3,-36.7 -200.9,-52.9 -68.6,-16 -133.8,-31.4 -212.3,-43.7 -144.5,-20.5 -288,-33.4 -437,-25.1 -148.3,7.5 -299.7,33.6 -447,87.3 -147.2,52.9 -288.2,140 -404.2,253.5 -114.5,114.9 -204.2,253.8 -259.9,399.6 -113.8,293.3 -124.5,595.6 -102.9,880.9 10.7,143.6 33.3,283.9 60.4,422.4 13.4,69.4 29.1,137.8 46.1,205.9 7.5,32.7 18.3,71.5 29.6,108.3 11.6,37.1 24.9,73.6 39.2,109.8 58.7,144.4 142.6,279 244.2,395.2 101.6,116.5 219.6,214.8 344.7,296.6 251,163.7 527,264 803.9,330.3 138.8,33 278.5,57.6 418.9,74.8 70.2,8.7 140.6,15.3 211.3,19.9 71.9,4.5 139.1,7.6 217.4,7.1 96.3,-0.5 173.9,-79.1 173.4,-175.4 -0.6,-93.8 -75,-169.9 -167.8,-173.3 l -8.8,-0.3"
        style="fill:#000072;fill-opacity:1;fill-rule:nonzero;stroke:none" id="path156" />
      <path
        d="m 24238.9,12989.8 c -99.6,-16.3 -206.2,-44.3 -304.1,-79 -98.7,-35.3 -193.6,-78.1 -278.2,-131.3 -85,-52.5 -159,-115.7 -215.3,-186.1 -27.4,-35.7 -50.3,-73 -68.9,-111.4 -17.8,-38.7 -30,-79 -39.1,-119.8 l -0.2,-1.1 c -21,-94.3 -114.5,-153.7 -208.8,-132.8 -94.3,21 -153.7,114.5 -132.8,208.8 1.6,7.1 4,14.9 6.3,21.6 23.7,65.4 53.6,128.4 90.8,186.3 37.9,57.4 81.4,109.7 128.9,156.2 96.1,91.6 205.3,159.6 317,209.9 111.9,51 226.8,85.1 341.9,110 116.3,24.1 228.7,39.1 350.4,42.9 48.2,1.4 88.5,-36.4 90,-84.6 1.3,-44.3 -30.6,-81.9 -73.1,-88.8 l -4.8,-0.8"
        style="fill:#000072;fill-opacity:1;fill-rule:nonzero;stroke:none" id="path158" />
      <path
        d="m 24356.5,11499.9 c -116.9,-38.9 -228.1,-61.4 -347.4,-74.1 -118.1,-11.8 -240.2,-10.5 -363.9,11.2 -123,22.8 -248.8,67.5 -360,144.1 -112.4,74.9 -204.4,181 -271.7,296.2 l -0.7,1.1 c -48.8,83.4 -20.7,190.6 62.7,239.4 83.4,48.8 190.5,20.7 239.3,-62.7 3.7,-6.3 7.3,-13.7 10.2,-20.2 34,-80.5 80.5,-153.3 145.4,-210.9 63.8,-58.8 145.5,-102.4 236.3,-132.5 91.4,-29 191.4,-44.4 293.8,-47.7 101.2,-3.2 210,5.1 306.4,23.4 l 5.7,1.1 c 47.3,9.1 93,-22 102,-69.3 8.3,-43.5 -17.3,-85.6 -58.1,-99.1"
        style="fill:#000072;fill-opacity:1;fill-rule:nonzero;stroke:none" id="path160" />
      <path
        d="m 15573.8,14727.1 159,-897.9 c 51.3,-289.4 302.8,-500.3 596.8,-500.3 375.6,0 660.8,338.2 597.3,708.5 l -154.1,897.9 c -49.9,290.9 -302.1,503.5 -597.2,503.5 h -5.1 c -376.9,0 -662.4,-340.5 -596.7,-711.7"
        style="fill:#000072;fill-opacity:1;fill-rule:nonzero;stroke:none" id="path162" />
      <path
        d="m 15745.7,14757.6 159,-897.9 c 36.6,-206.4 215.2,-356.3 424.9,-356.3 127.4,0 247.7,56 329.9,153.4 82.1,97.5 116.9,225.4 95.3,351.1 l -154,897.8 c -35.6,207.8 -214.5,358.6 -425.3,358.6 h -5 c -127.9,0 -248.4,-56.2 -330.6,-154.3 -82.2,-98 -116.5,-226.5 -94.2,-352.5 z m 583.9,-1603.2 c -379.3,0 -702.5,271 -768.6,644.4 l -159.1,897.9 v 0 c -40.3,227.9 21.8,460.3 170.5,637.6 148.7,177.4 366.7,279.1 598.1,279.1 h 5 c 381.3,0 704.9,-272.8 769.4,-648.6 l 154,-897.9 c 39,-227.3 -23.9,-458.8 -172.6,-635.1 -148.6,-176.3 -366.1,-277.4 -596.7,-277.4"
        style="fill:#000072;fill-opacity:1;fill-rule:nonzero;stroke:none" id="path164" />
      <path
        d="m 16493.7,14899.8 c 0,-185.7 -150.5,-336.3 -336.2,-336.3 -185.7,0 -336.2,150.6 -336.2,336.3 0,185.7 150.5,336.2 336.2,336.2 185.7,0 336.2,-150.5 336.2,-336.2"
        style="fill:#000072;fill-opacity:1;fill-rule:nonzero;stroke:none" id="path166" />
      <path
        d="m 16250.1,14899.8 c 0,-51.1 -41.5,-92.6 -92.6,-92.6 -51.1,0 -92.5,41.5 -92.5,92.6 0,51.1 41.4,92.5 92.5,92.5 51.1,0 92.6,-41.4 92.6,-92.5"
        style="fill:#000072;fill-opacity:1;fill-rule:nonzero;stroke:none" id="path168" />
      <path
        d="m 16157.5,15148.7 c -137.3,0 -248.9,-111.6 -248.9,-248.9 0,-137.3 111.6,-249 248.9,-249 137.3,0 249,111.7 249,249 0,137.3 -111.7,248.9 -249,248.9 z m 0,-672.4 c -233.5,0 -423.5,190 -423.5,423.5 0,233.5 190,423.5 423.5,423.5 233.5,0 423.5,-190 423.5,-423.5 0,-233.5 -190,-423.5 -423.5,-423.5"
        style="fill:#61619b;fill-opacity:1;fill-rule:nonzero;stroke:none" id="path170" />
      <path
        d="m 16668.3,13919.3 c 0,-185.7 -150.6,-336.3 -336.3,-336.3 -185.6,0 -336.2,150.6 -336.2,336.3 0,185.7 150.6,336.2 336.2,336.2 185.7,0 336.3,-150.5 336.3,-336.2"
        style="fill:#000072;fill-opacity:1;fill-rule:nonzero;stroke:none" id="path172" />
      <path
        d="m 16332,14168.2 c -137.2,0 -248.9,-111.7 -248.9,-248.9 0,-137.3 111.7,-249 248.9,-249 137.3,0 249,111.7 249,249 0,137.2 -111.7,248.9 -249,248.9 z m 0,-672.4 c -233.5,0 -423.5,189.9 -423.5,423.5 0,233.5 190,423.5 423.5,423.5 233.6,0 423.6,-190 423.6,-423.5 0,-233.6 -190,-423.5 -423.6,-423.5"
        style="fill:#61619b;fill-opacity:1;fill-rule:nonzero;stroke:none" id="path174" />
      <path
        d="m 17923,22949.8 c -64.9,-883.1 -645.2,-1560.2 -1296.3,-1512.4 -651,47.8 -1126.2,802.5 -1061.3,1685.6 64.9,883.2 645.2,1560.3 1296.3,1512.5 651,-47.8 1126.2,-802.5 1061.3,-1685.7"
        style="fill:#000072;fill-opacity:1;fill-rule:nonzero;stroke:none" id="path176" />
      <path
        d="m 17566,23277.9 c -25.7,-350.7 -224.1,-621.9 -443,-605.9 -218.9,16.1 -375.5,313.4 -349.7,664.1 25.7,350.7 224.1,621.9 443,605.8 218.9,-16.1 375.5,-313.4 349.7,-664"
        style="fill:#ffffff;fill-opacity:1;fill-rule:nonzero;stroke:none" id="path178" />
      <path
        d="m 16330.9,22025.1 c -98.6,0 -222.4,130.8 -292.5,317.6 -78.9,210.3 -59.8,412 42.8,450.4 11.4,4.3 23.5,6.4 35.9,6.4 98.7,0 222.5,-130.8 292.6,-317.6 78.9,-210.3 59.7,-412 -42.8,-450.4 -11.5,-4.3 -23.5,-6.4 -36,-6.4"
        style="fill:#5959a3;fill-opacity:1;fill-rule:nonzero;stroke:none" id="path180" />
      <path
        d="m 22351.1,22949.8 c 64.9,-883.1 645.3,-1560.2 1296.3,-1512.4 651,47.8 1126.2,802.5 1061.3,1685.6 -64.8,883.2 -645.2,1560.3 -1296.2,1512.5 -651.1,-47.8 -1126.2,-802.5 -1061.4,-1685.7"
        style="fill:#000072;fill-opacity:1;fill-rule:nonzero;stroke:none" id="path182" />
      <path
        d="m 22708.1,23277.9 c 25.8,-350.7 224.1,-621.9 443,-605.9 219,16.1 375.5,313.4 349.8,664.1 -25.8,350.7 -224.1,621.9 -443,605.8 -219,-16.1 -375.6,-313.4 -349.8,-664"
        style="fill:#ffffff;fill-opacity:1;fill-rule:nonzero;stroke:none" id="path184" />
      <path
        d="m 23943.2,22025.1 c -12.4,0 -24.5,2.1 -36,6.4 -102.5,38.4 -121.6,240.1 -42.7,450.4 70,186.8 193.9,317.6 292.5,317.6 12.5,0 24.5,-2.1 36,-6.4 102.5,-38.4 121.6,-240.1 42.7,-450.4 -70,-186.8 -193.9,-317.6 -292.5,-317.6"
        style="fill:#5959a3;fill-opacity:1;fill-rule:nonzero;stroke:none" id="path186" />
      <path
        d="m 13122.3,8908.3 c 61.1,-367.3 -110.3,-701.9 -382.9,-747.3 -272.6,-45.3 -543.1,215.6 -604.3,582.9 -61.1,367.3 110.3,701.9 382.9,747.3 272.6,45.3 543.1,-215.6 604.3,-582.9"
        style="fill:#ff9499;fill-opacity:1;fill-rule:nonzero;stroke:none" id="path188" />
      <path
        d="m 13117.3,9786.1 c -3.1,-124.5 -80.4,-223.6 -172.8,-221.3 -92.4,2.3 -164.8,105 -161.7,229.5 3,124.4 80.4,223.5 172.7,221.2 92.4,-2.2 164.8,-105 161.8,-229.4"
        style="fill:#ff9499;fill-opacity:1;fill-rule:nonzero;stroke:none" id="path190" />
      <path
        d="m 12639.9,9951 c 15.4,-173.7 -76.6,-323.8 -205.5,-335.3 -128.9,-11.4 -245.9,120.1 -261.4,293.8 -15.4,173.7 76.6,323.8 205.5,335.3 129,11.4 246,-120.1 261.4,-293.8"
        style="fill:#ff9499;fill-opacity:1;fill-rule:nonzero;stroke:none" id="path192" />
      <path
        d="m 12167.2,9574.2 c 34.6,-121.1 -10.2,-240.1 -100.1,-265.8 -89.8,-25.7 -190.8,51.7 -225.4,172.8 -34.6,121.1 10.2,240.1 100.1,265.8 89.9,25.7 190.8,-51.7 225.4,-172.8"
        style="fill:#ff9499;fill-opacity:1;fill-rule:nonzero;stroke:none" id="path194" />
      <path
        d="m 27267.3,8908.3 c -61.2,-367.3 110.3,-701.9 382.9,-747.3 272.5,-45.3 543.1,215.6 604.3,582.9 61.1,367.3 -110.3,701.9 -382.9,747.3 -272.6,45.3 -543.1,-215.6 -604.3,-582.9"
        style="fill:#ff9499;fill-opacity:1;fill-rule:nonzero;stroke:none" id="path196" />
      <path
        d="m 27272.3,9786.1 c 3.1,-124.5 80.4,-223.6 172.8,-221.3 92.4,2.3 164.8,105 161.7,229.5 -3,124.4 -80.4,223.5 -172.8,221.2 -92.3,-2.2 -164.7,-105 -161.7,-229.4"
        style="fill:#ff9499;fill-opacity:1;fill-rule:nonzero;stroke:none" id="path198" />
      <path
        d="m 27749.7,9951 c -15.4,-173.7 76.6,-323.8 205.5,-335.3 128.9,-11.4 245.9,120.1 261.4,293.8 15.4,173.7 -76.6,323.8 -205.5,335.3 -129,11.4 -246,-120.1 -261.4,-293.8"
        style="fill:#ff9499;fill-opacity:1;fill-rule:nonzero;stroke:none" id="path200" />
      <path
        d="m 28222.4,9574.2 c -34.6,-121.1 10.2,-240.1 100.1,-265.8 89.8,-25.7 190.8,51.7 225.4,172.8 34.6,121.1 -10.2,240.1 -100.1,265.8 -89.9,25.7 -190.8,-51.7 -225.4,-172.8"
        style="fill:#ff9499;fill-opacity:1;fill-rule:nonzero;stroke:none" id="path202" />
      <path
        d="m 29802.2,26622 c -240.7,420.6 -351,920.3 -282.7,1437.8 165.7,1256.1 1318.3,2140.1 2574.4,1974.4 1256.1,-165.7 2140,-1318.3 1974.3,-2574.4 -165.7,-1256.1 -1318.3,-2140 -2574.4,-1974.3 -349.3,46.1 -669.8,168.7 -947,348.5 l -1068,-207.4 323.4,995.4"
        style="fill:#ffffff;fill-opacity:1;fill-rule:nonzero;stroke:none" id="path204" />
      <path
        d="m 33872.8,28158.1 c -294.9,752.2 -978.9,1325.5 -1836.6,1438.7 -101.8,13.4 -203,19.9 -302.9,19.9 -742.4,0 -1421.2,-360.4 -1844.1,-933.3 348.4,717.2 1084.8,1193.2 1903.2,1193.2 91.8,0 184.8,-6 278.2,-18.4 926.3,-122.1 1634.7,-829.3 1802.2,-1700.1"
        style="fill:#ffffff;fill-opacity:1;fill-rule:nonzero;stroke:none" id="path206" />
      <path
        d="m 30583.3,26021.8 60.1,-38.9 c 264.8,-171.8 558.8,-280 873.7,-321.5 1157.1,-152.7 2222.5,664.6 2375.2,1821.6 152.6,1157.1 -664.6,2222.6 -1821.7,2375.2 -1157,152.7 -2222.5,-664.5 -2375.2,-1821.6 -61,-462.9 29.1,-921.6 260.8,-1326.5 l 39,-68.2 -254.6,-783.7 842.7,163.6 m 1212.3,-733.7 c -107.3,0 -215.8,7 -325,21.4 -343.4,45.3 -665.6,158.6 -958.8,336.9 l -1294.9,-251.4 392.7,1208.7 c -241.9,455.4 -333.9,965.1 -266.1,1479.4 178.3,1351.1 1422.5,2305.3 2773.6,2127 1351.1,-178.2 2305.3,-1422.4 2127.1,-2773.5 -163.9,-1241.9 -1228.4,-2148.5 -2448.6,-2148.5"
        style="fill:#000072;fill-opacity:1;fill-rule:nonzero;stroke:none" id="path208" />
      <path
        d="m 31795.4,25643.1 c -91.9,0 -184.8,6 -278.3,18.3 -314.9,41.5 -608.9,149.7 -873.7,321.5 l -60.1,38.9 -842.7,-163.6 211.8,651.8 c 453.4,-346.1 1015.7,-545.1 1606.6,-545.1 187.2,0 377.2,20 567.7,61.6 760.9,166.2 1373.1,644 1732.5,1270.2 -216,-966.7 -1080.8,-1653.6 -2063.8,-1653.6"
        style="fill:#d9d9ea;fill-opacity:1;fill-rule:nonzero;stroke:none" id="path210" />
      <path
        d="m 31796.7,25465.5 c -99.9,0 -201,6.5 -302.9,20 -349.3,46.1 -669.8,168.7 -947,348.5 l -1068,-207.4 323.4,995.4 c -4.3,7.4 -8.1,15 -12.3,22.4 52.4,-47 106.6,-91.8 162.5,-134.4 l -211.8,-651.8 842.7,163.6 60.1,-38.9 c 264.8,-171.8 558.8,-280 873.7,-321.5 93.5,-12.3 186.4,-18.3 278.3,-18.3 983,0 1847.8,686.9 2063.8,1653.6 94,163.5 170.7,337.3 228.3,518.3 2.6,-117 -3.5,-235.6 -19.3,-355.2 -152.2,-1154.3 -1137.9,-1994.3 -2271.5,-1994.3"
        style="fill:#000072;fill-opacity:1;fill-rule:nonzero;stroke:none" id="path212" />
      <path
        d="m 31059.3,28404.1 v 0 c 198.5,198.6 520.4,163 718.9,-35.5 l 30.9,-30.9 30.9,30.9 c 198.5,198.5 520.4,234.1 718.9,35.5 198.6,-198.5 198.6,-520.4 0,-718.9 l -30.9,-30.9 -624.1,-624.2 c -52.4,-52.3 -137.2,-52.3 -189.6,0 l -624.1,624.2 -30.9,30.9 c -198.6,198.5 -198.6,520.4 0,718.9"
        style="fill:#ff0068;fill-opacity:1;fill-rule:nonzero;stroke:none" id="path214" />
    </g>
  </g>
</svg>